<?xml version="1.0" encoding="UTF-8" standalone="no"?>
<!-- Generator: Adobe Illustrator 16.2.0, SVG Export Plug-In . SVG Version: 6.00 Build 0)  -->

<svg
   xmlns:dc="http://purl.org/dc/elements/1.1/"
   xmlns:cc="http://creativecommons.org/ns#"
   xmlns:rdf="http://www.w3.org/1999/02/22-rdf-syntax-ns#"
   xmlns:svg="http://www.w3.org/2000/svg"
   xmlns="http://www.w3.org/2000/svg"
   xmlns:sodipodi="http://sodipodi.sourceforge.net/DTD/sodipodi-0.dtd"
   xmlns:inkscape="http://www.inkscape.org/namespaces/inkscape"
   version="1.1"
   x="0px"
   y="0px"
   width="343"
   height="233"
   viewBox="0 0 342.99999 232.99999"
   enable-background="new 0 0 841.89 595.28"
   xml:space="preserve"
   id="svg158"
   sodipodi:docname="Lageplan-2.svg"
   inkscape:version="0.92.3 (2405546, 2018-03-11)"><metadata
   id="metadata164"><rdf:RDF><cc:Work
       rdf:about=""><dc:format>image/svg+xml</dc:format><dc:type
         rdf:resource="http://purl.org/dc/dcmitype/StillImage" /><dc:title></dc:title></cc:Work></rdf:RDF></metadata><defs
   id="defs162">
	
	
	
	
	
	
	
	
	
	
	
	
	
	
	
	
	
	
	
	
	
	
	
	
	
	
	
	
	
	
	
	
	
	
	
	
	
	
	
	
	
</defs><sodipodi:namedview
   pagecolor="#ffffff"
   bordercolor="#666666"
   borderopacity="1"
   objecttolerance="10"
   gridtolerance="10"
   guidetolerance="10"
   inkscape:pageopacity="0"
   inkscape:pageshadow="2"
   inkscape:window-width="1920"
   inkscape:window-height="1027"
   id="namedview160"
   showgrid="false"
   inkscape:zoom="1.2782552"
   inkscape:cx="406.71987"
   inkscape:cy="291.41107"
   inkscape:window-x="-8"
   inkscape:window-y="-8"
   inkscape:window-maximized="1"
   inkscape:current-layer="svg158" />
<path
   style="fill:none"
   inkscape:connector-curvature="0"
   id="path2"
   d="m 144.82203,210.87 5.48,3.164 3.166,-5.48 c 0.184,-0.318 0.521,-0.512 0.887,-0.512 h 5.385 c 0.365,0 0.705,0.197 0.887,0.512 l 3.165,5.482 5.48,-3.164 c 0.158,-0.092 0.336,-0.137 0.512,-0.137 0.178,0 0.354,0.045 0.512,0.137 l 5.482,3.166 3.165,-5.482 c 0.183,-0.316 0.521,-0.512 0.887,-0.512 l 4.79,-0.002 2.86,-4.98 -5.487,-3.156 c -0.316,-0.182 -0.512,-0.518 -0.515,-0.885 l -0.009,-4.791 -4.972,-2.861 -3.144,5.48 c -0.157,0.271 -0.43,0.459 -0.742,0.502 l -5.375,0.779 -2.934,5.082 c -0.136,0.234 -0.359,0.406 -0.622,0.477 -0.263,0.071 -0.542,0.035 -0.777,-0.104 l -5.855,-3.381 -5.856,3.379 c -0.491,0.283 -1.117,0.117 -1.4,-0.373 l -3.38,-5.859 h -4.2 l -6.765,11.715 2.869,4.967 5.481,-3.162 c 0.317,-0.185 0.708,-0.185 1.025,-0.001 z" /><rect
   style="fill:none"
   id="rect4"
   height="1.395"
   width="4.8649998"
   y="50.210995"
   x="108.53503" /><path
   style="fill:none"
   inkscape:connector-curvature="0"
   id="path6"
   d="m 69.24903,38.795 h -54.103 c 1.137,4.322 2.211,8.404 3.223,12.254 h 50.88 z" /><rect
   style="fill:none"
   id="rect8"
   height="5.6929998"
   width="53.104"
   y="168.26199"
   x="153.25603" /><polygon
   style="fill:none"
   id="polygon10"
   points="348.825,327.246 313.262,327.246 313.248,351.205 348.825,351.205 "
   transform="translate(-257.00297,-261.103)" /><path
   style="fill:none"
   inkscape:connector-curvature="0"
   id="path12"
   d="m 113.55303,90.102 -0.145,-35.078 h -6.58 c -0.943,0 -1.707,-0.768 -1.707,-1.711 v -3.102 h -9.884 l 0.003,14.223 c 0,0.027 0,0.057 -0.003,0.084 v 25.629 c 0.128,-0.027 0.259,-0.045 0.394,-0.045 z" /><rect
   style="fill:none"
   id="rect14"
   height="40.525002"
   width="9.5629997"
   y="116.64902"
   x="121.22604" /><rect
   style="fill:none"
   id="rect16"
   height="5.691"
   width="53.104"
   y="30.068996"
   x="153.25703" /><rect
   style="fill:none"
   id="rect18"
   height="7.5019999"
   width="19.237"
   y="21.790005"
   x="278.10703" /><rect
   style="fill:none"
   id="rect20"
   height="7.2290001"
   width="20.775999"
   y="156.659"
   x="239.60701" /><path
   style="fill:#333333"
   inkscape:connector-curvature="0"
   id="path22"
   d="m 327.32103,1.95 c -0.547,-0.746 -1.417,-1.189 -2.342,-1.189 h -171.661 c -1.604,0 -2.904,1.301 -2.904,2.906 0,1.602 1.3,2.9 2.904,2.9 h 167.695 l -69.89,220.627 h -106.863 c -1.604,0 -2.902,1.299 -2.902,2.904 0,1.602 1.299,2.902 2.902,2.902 h 108.989 c 1.268,0 2.386,-0.82 2.768,-2.025 l 71.731,-226.434 c 0.278,-0.88 0.119,-1.845 -0.427,-2.591 z" /><path
   style="fill:#333333"
   inkscape:connector-curvature="0"
   id="path24"
   d="m 152.71503,123.825 c -0.943,0 -1.707,0.768 -1.707,1.709 v 17.078 c 0,0.943 0.764,1.707 1.707,1.707 h 47.441 c 0.94,0 1.707,-0.764 1.707,-1.707 V 53.196 c 0,-0.943 -0.767,-1.709 -1.707,-1.709 h -46.607 c -0.454,0 -0.889,0.182 -1.21,0.504 -0.319,0.322 -0.5,0.758 -0.498,1.211 l 0.047,12.1 c 0.004,0.939 0.767,1.701 1.707,1.701 0.001,0 0.005,0 0.007,0 0.943,-0.004 1.705,-0.773 1.7,-1.715 l -0.039,-10.385 h 17.952 V 76.2 h -19.773 c -0.942,0 -1.707,0.766 -1.707,1.709 0,0.943 0.765,1.709 1.707,1.709 h 21.48 c 0.942,0 1.707,-0.766 1.707,-1.709 V 54.903 h 21.818 v 35.91 h -22.314 c -0.942,0 -1.707,0.766 -1.707,1.707 0,0.943 0.765,1.707 1.707,1.707 h 22.314 v 15.229 h -43.612 V 88.452 c 0,-0.943 -0.765,-1.707 -1.708,-1.707 -0.943,0 -1.708,0.764 -1.708,1.707 v 26.244 c 0,0.943 0.765,1.707 1.708,1.707 0.943,0 1.708,-0.764 1.708,-1.707 v -1.824 h 43.612 v 28.033 h -44.024 v -15.371 c 0,-0.942 -0.766,-1.709 -1.708,-1.709 z" /><path
   style="fill:#333333"
   inkscape:connector-curvature="0"
   id="path26"
   d="m 217.28803,193.799 v 6.775 c 0,0.943 0.765,1.707 1.71,1.707 0.941,0 1.706,-0.764 1.706,-1.707 v -5.066 h 14.036 v 22.137 c 0,0.945 0.765,1.707 1.709,1.707 h 10.643 c 0.945,0 1.708,-0.762 1.708,-1.707 0,-0.943 -0.763,-1.707 -1.708,-1.707 h -8.936 v -20.43 h 8.936 c 0.945,0 1.708,-0.766 1.708,-1.709 0,-0.943 -0.763,-1.707 -1.708,-1.707 h -28.094 c -0.945,0 -1.71,0.764 -1.71,1.707 z" /><path
   style="fill:#333333"
   inkscape:connector-curvature="0"
   id="path28"
   d="m 219.96503,22.305 c -0.944,0 -1.707,0.764 -1.707,1.707 v 30.51 c 0,0.945 0.763,1.707 1.707,1.707 h 33.851 c 0.941,0 1.707,-0.762 1.707,-1.707 0,-0.943 -0.766,-1.707 -1.707,-1.707 h -32.144 V 28.653 h 40.034 v 7.971 c 0,0.939 0.763,1.707 1.707,1.707 0.943,0 1.706,-0.768 1.706,-1.707 V 24.013 c 0,-0.943 -0.763,-1.707 -1.706,-1.707 -0.944,0 -1.707,0.764 -1.707,1.707 v 1.227 h -40.034 v -1.227 c 0,-0.944 -0.764,-1.708 -1.707,-1.708 z" /><path
   style="fill:#333333"
   inkscape:connector-curvature="0"
   id="path30"
   d="m 93.53103,13.245 c 0.942,0 1.706,-0.768 1.706,-1.711 v -6.16 h 17.993 l 0.17,27.418 c 0.006,0.938 0.771,1.695 1.707,1.695 0.004,0 0.008,0 0.012,0 0.942,-0.006 1.702,-0.775 1.697,-1.719 l -0.182,-29.113 c -0.007,-0.941 -0.77,-1.699 -1.708,-1.699 h -21.396 c -0.943,0 -1.709,0.766 -1.709,1.711 v 7.867 c 0.001,0.943 0.767,1.711 1.71,1.711 z" /><path
   style="fill:#333333"
   inkscape:connector-curvature="0"
   id="path32"
   d="m 57.08003,6.567 h 16.255 c 1.604,0 2.903,-1.299 2.903,-2.9 0,-1.605 -1.3,-2.906 -2.903,-2.906 h -16.255 c -1.603,0 -2.902,1.301 -2.902,2.906 0,1.601 1.299,2.9 2.902,2.9 z" /><path
   style="fill:#333333"
   inkscape:connector-curvature="0"
   id="path34"
   d="m 150.16603,216.319 c 0.49,0.287 1.115,0.117 1.4,-0.373 l 3.381,-5.855 h 4.201 l 3.38,5.859 c 0.136,0.232 0.359,0.406 0.622,0.475 0.263,0.07 0.543,0.033 0.777,-0.102 l 5.856,-3.381 5.855,3.383 c 0.162,0.092 0.339,0.137 0.512,0.137 0.354,0 0.699,-0.184 0.887,-0.512 l 3.385,-5.857 4.791,-0.002 c 0.368,0 0.708,-0.193 0.89,-0.514 l 3.664,-6.385 c 0.281,-0.488 0.112,-1.117 -0.378,-1.396 l -5.861,-3.369 -0.009,-4.795 c -10e-4,-0.365 -0.197,-0.701 -0.515,-0.885 l -6.376,-3.664 c -0.235,-0.137 -0.515,-0.174 -0.777,-0.102 -0.263,0.07 -0.487,0.242 -0.622,0.479 l -3.403,5.934 -5.374,0.779 c -0.311,0.045 -0.583,0.229 -0.74,0.5 l -2.671,4.625 -5.48,-3.164 c -0.316,-0.182 -0.707,-0.182 -1.024,0 l -5.481,3.164 -3.164,-5.482 c -0.183,-0.316 -0.521,-0.512 -0.887,-0.512 l -5.384,-0.002 c -0.366,0 -0.704,0.197 -0.888,0.512 l -7.355,12.74 c -0.183,0.314 -0.183,0.705 0,1.023 l 3.676,6.367 c 0.137,0.236 0.359,0.406 0.623,0.48 0.262,0.068 0.542,0.031 0.776,-0.105 l 5.856,-3.381 z m -11.85,-2.287 -2.869,-4.967 6.765,-11.715 h 4.2 l 3.38,5.859 c 0.283,0.49 0.909,0.656 1.4,0.373 l 5.856,-3.379 5.855,3.381 c 0.235,0.139 0.515,0.174 0.777,0.104 0.262,-0.07 0.486,-0.242 0.622,-0.477 l 2.934,-5.082 5.375,-0.779 c 0.313,-0.043 0.585,-0.23 0.742,-0.502 l 3.144,-5.48 4.972,2.861 0.009,4.791 c 0.003,0.367 0.198,0.703 0.515,0.885 l 5.487,3.156 -2.86,4.98 -4.79,0.002 c -0.365,0 -0.704,0.195 -0.887,0.512 l -3.165,5.482 -5.482,-3.166 c -0.158,-0.092 -0.334,-0.137 -0.512,-0.137 -0.176,0 -0.354,0.045 -0.512,0.137 l -5.48,3.164 -3.165,-5.482 c -0.182,-0.314 -0.521,-0.512 -0.887,-0.512 h -5.385 c -0.365,0 -0.703,0.193 -0.887,0.512 l -3.166,5.48 -5.48,-3.164 c -0.317,-0.184 -0.708,-0.184 -1.024,0 z" /><path
   style="fill:#333333"
   inkscape:connector-curvature="0"
   id="path36"
   d="m 131.81303,114.602 h -11.61 c -0.566,0 -1.025,0.455 -1.025,1.021 v 42.576 c 0,0.566 0.459,1.025 1.025,1.025 h 11.61 c 0.565,0 1.024,-0.459 1.024,-1.025 v -42.576 c 0.001,-0.566 -0.458,-1.021 -1.024,-1.021 z m -1.024,42.572 h -9.563 v -40.525 h 9.563 z" /><path
   style="fill:#333333"
   inkscape:connector-curvature="0"
   id="path38"
   d="m 207.38803,166.211 h -55.155 c -0.568,0 -1.025,0.463 -1.025,1.027 v 7.74 c 0,0.564 0.457,1.023 1.025,1.023 h 55.155 c 0.565,0 1.023,-0.459 1.023,-1.023 v -7.74 c 0,-0.564 -0.458,-1.027 -1.023,-1.027 z m -1.028,7.745 h -53.104 v -5.693 h 53.104 z" /><rect
   style="fill:none"
   id="rect40"
   height="1.936"
   width="27.997999"
   y="141.147"
   x="232.35103" /><rect
   style="fill:none"
   id="rect42"
   height="7.2290001"
   width="20.775999"
   y="156.659"
   x="239.60701" /><path
   sodipodi:nodetypes="scssscsscssscccsssss"
   style="fill:#333333"
   inkscape:connector-curvature="0"
   id="path44"
   d="m 267.75847,89.436 h -2.63944 V 46.782 c 0,-0.941 -0.763,-1.707 -1.706,-1.707 -0.944,0 -1.707,0.766 -1.707,1.707 v 42.654 h -41.257 c -0.943,0 -1.707,0.764 -1.707,1.709 v 4.115 4.799 c 0,0.945 0.764,1.707 1.707,1.707 0.944,0 1.707,-0.762 1.707,-1.707 V 95.26 92.854 h 43.89444 l 0.0976,7.205 c 0.0128,0.94491 0.66735,1.707 1.61035,1.707 0.942,0 1.705,-0.762 1.705,-1.707 v -8.914 c 0,-0.945 -0.762,-1.709 -1.705,-1.709 z" /><path
   style="fill:#333333"
   inkscape:connector-curvature="0"
   id="path46"
   d="m 262.09103,153.245 h -22.484 v -6.746 l 22.448,0.002 c 0.453,0 0.887,-0.182 1.208,-0.502 0.322,-0.318 0.5,-0.754 0.5,-1.209 v -3.643 -3.943 c 0,-0.945 -0.764,-1.709 -1.708,-1.709 -0.942,0 -1.706,0.764 -1.706,1.709 v 3.943 1.936 h -27.998 v -1.936 -3.943 c 0,-0.945 -0.767,-1.709 -1.707,-1.709 -0.944,0 -1.708,0.764 -1.708,1.709 v 3.943 3.643 c 0,0.943 0.764,1.709 1.708,1.709 h 5.549 v 26.773 h -5.549 c -0.944,0 -1.708,0.766 -1.708,1.707 0,0.943 0.764,1.709 1.708,1.709 h 7.256 c 0.943,0 1.707,-0.766 1.707,-1.709 v -7.676 h 22.483 c 0.943,0 1.708,-0.766 1.708,-1.707 v -10.645 c 0.001,-0.943 -0.764,-1.706 -1.707,-1.706 z m -1.707,10.642 h -20.777 v -7.229 h 20.776 v 7.229 z" /><path
   style="fill:#333333"
   inkscape:connector-curvature="0"
   id="path48"
   d="m 298.36903,31.342 c 0.569,0 1.025,-0.461 1.025,-1.025 v -9.551 c 0,-0.566 -0.456,-1.025 -1.025,-1.025 h -21.288 c -0.565,0 -1.024,0.459 -1.024,1.025 v 9.551 c 0,0.564 0.459,1.025 1.024,1.025 z m -20.262,-9.552 h 19.237 v 7.502 h -19.237 z" /><path
   style="fill:#333333"
   inkscape:connector-curvature="0"
   id="path50"
   d="m 208.41103,29.045 c 0,-0.568 -0.458,-1.027 -1.023,-1.027 h -55.155 c -0.565,0 -1.025,0.459 -1.025,1.027 v 7.738 c 0,0.566 0.46,1.025 1.025,1.025 h 55.155 c 0.565,0 1.023,-0.459 1.023,-1.025 z m -2.05,6.715 h -53.104 v -5.691 h 53.104 z" /><path
   style="fill:#333333"
   inkscape:connector-curvature="0"
   id="path52"
   d="m 52.84503,64.434 -0.016,25.668 h -9.94 c -0.942,0 -1.707,0.766 -1.707,1.709 0,0.941 0.765,1.707 1.707,1.707 h 48.936 v 9.646 c 0,0.943 0.765,1.707 1.709,1.707 0.941,0 1.707,-0.764 1.707,-1.707 v -9.691 c 0.125,0.029 0.256,0.045 0.391,0.045 h 19.637 c 0.453,0 0.891,-0.18 1.211,-0.502 0.319,-0.322 0.498,-0.76 0.497,-1.213 l -0.159,-38.492 v -9.969 c 0,-0.943 -0.766,-1.709 -1.709,-1.709 -0.943,0 -1.707,0.766 -1.707,1.709 v 3.455 h -18.165 V 21.99 c 0,-0.945 -0.764,-1.709 -1.706,-1.709 -0.943,0 -1.709,0.764 -1.709,1.709 v 40.736 h -37.271 c -0.943,10e-4 -1.706,0.767 -1.706,1.708 z m 55.69,-14.223 h 4.865 v 1.395 h -4.865 z m -13.298,14.307 c 0.003,-0.027 0.003,-0.057 0.003,-0.084 l -0.003,-14.223 h 9.884 v 3.102 c 0,0.943 0.764,1.711 1.707,1.711 h 6.58 l 0.145,35.078 h -17.922 c -0.135,0 -0.266,0.018 -0.394,0.045 z m -38.978,1.625 h 35.563 v 23.959 h -35.577 z" /><path
   style="fill:#e5005b"
   inkscape:connector-curvature="0"
   id="path54"
   d="m 39.19403,115.264 c 0.135,0.525 0.867,3.498 5.727,23.383 h 44.576 V 95.752 h -55.067 c 4.13,16.92 4.716,19.318 4.767,19.512 z" /><path
   style="fill:none"
   inkscape:connector-curvature="0"
   id="path56"
   d="m 91.27603,183.372 h -38.055 c 0.229,0.869 0.461,1.752 0.695,2.643 h 37.359 v -2.643 z" /><path
   style="fill:none"
   inkscape:connector-curvature="0"
   id="path58"
   d="m 69.24903,38.795 h -54.103 c 1.137,4.322 2.211,8.404 3.223,12.254 h 50.88 z" /><path
   style="fill:#ffed00"
   inkscape:connector-curvature="0"
   id="path60"
   d="m 94.18003,192.96 c -4.183,0 -5.12,-3.738 -5.12,-5.232 v -1.713 h -31.141 c 2.769,10.656 5.984,23.035 9.719,37.416 7.827,0.037 23.672,0.24 36.065,0.406 v -37.822 h -4.269 v 1.713 c 10e-4,1.493 -0.562,5.232 -5.254,5.232 z" /><path
   style="fill:#333333"
   inkscape:connector-curvature="0"
   id="path62"
   d="m 122.97903,226.846 c -0.318,0 -3.616,-0.045 -8.181,-0.107 -0.623,-0.01 -1.273,-0.02 -1.953,-0.027 v -38.745 c 0,-1.604 -1.299,-2.904 -2.902,-2.904 -1.603,0 -2.902,1.301 -2.902,2.904 v 38.664 c -1.08,-0.016 -2.197,-0.029 -3.338,-0.045 -13.477,-0.18 -30.706,-0.396 -39.217,-0.436 -4.062,-15.428 -7.558,-28.707 -10.569,-40.137 -0.234,-0.891 -0.467,-1.773 -0.695,-2.643 h 38.055 v 2.643 1.836 c 0,1.605 1.3,2.904 2.903,2.904 1.603,0 2.902,-1.299 2.902,-2.904 v -1.836 -5.502 c 0,-0.014 0,-0.029 0,-0.045 0,-0.014 0,-0.029 0,-0.045 v -6.357 c 0,-1.604 -1.299,-2.904 -2.902,-2.904 -1.603,0 -2.903,1.301 -2.903,2.904 v 3.504 h -39.584 c -0.238,-0.906 -0.473,-1.793 -0.703,-2.672 -2.633,-9.998 -4.823,-18.313 -6.646,-25.236 -0.27,-1.021 -0.531,-2.016 -0.785,-2.979 h 48.251 v 6.896 c 0,1.602 1.3,2.902 2.903,2.902 1.603,0 2.903,-1.301 2.903,-2.902 v -16.449 c 0,-1.604 -1.3,-2.906 -2.903,-2.906 -1.603,0 -2.903,1.303 -2.903,2.906 v 3.748 h -49.783 c -0.202,-0.768 -0.397,-1.508 -0.588,-2.23 -5.239,-19.885 -6.028,-22.857 -6.175,-23.383 h 0.002 c -0.055,-0.193 -0.686,-2.592 -5.138,-19.512 -2.272,-8.637 -5.538,-21.053 -10.231,-38.898 h 52.254 c 1.603,0 2.903,-1.299 2.903,-2.902 V 35.892 c 0,-1.602 -1.301,-2.902 -2.903,-2.902 h -58.532 c -2.105,-8.008 -4.416,-16.787 -6.95,-26.424 h 23.486 15.979 0.276 c 1.604,0 2.903,-1.299 2.903,-2.9 0,-1.605 -1.3,-2.906 -2.903,-2.906 h -0.276 -15.979 -27.251 c -0.9,0 -1.75,0.418 -2.299,1.131 -0.551,0.715 -0.738,1.641 -0.51,2.512 13.107,49.826 20.401,77.559 24.47,93.021 5.111,19.426 5.131,19.482 5.167,19.59 -0.005,-0.016 -0.015,-0.037 -0.036,-0.115 0.07,0.248 1.005,3.781 5.739,21.748 0.396,1.506 0.817,3.102 1.269,4.816 -0.01,0.104 -0.016,0.209 -0.016,0.316 0,0.635 0.203,1.223 0.548,1.697 0.351,1.33 0.719,2.729 1.103,4.184 1.816,6.898 4.007,15.213 6.646,25.236 0.469,1.777 0.95,3.605 1.447,5.492 -10e-4,0.027 -10e-4,0.055 -10e-4,0.078 0,0.551 0.151,1.064 0.416,1.502 0.828,3.145 1.697,6.443 2.606,9.895 2.892,10.982 6.199,23.543 9.985,37.922 0.336,1.277 1.489,2.166 2.808,2.166 7.317,0 26.666,0.242 41.456,0.441 4.154,0.057 7.948,0.107 11.016,0.15 5.336,0.072 7.916,0.109 8.261,0.109 1.604,0 2.903,-1.301 2.903,-2.904 0.001,-1.604 -1.299,-2.901 -2.903,-2.901 z M 15.14603,38.795 h 54.103 v 12.254 h -50.88 c -1.012,-3.849 -2.086,-7.931 -3.223,-12.254 z" /><path
   style="fill:#ef7d00"
   inkscape:connector-curvature="0"
   id="path66"
   d="m 89.49703,174.897 v -25.236 h -41.371 c 1.672,6.924 3.678,15.238 6.09,25.236 z" /><rect
   style="fill:#0fb6cc"
   id="rect72"
   height="19.055"
   width="34.872002"
   y="31.342007"
   x="224.37502" /><rect
   style="fill:#006653"
   id="rect76"
   height="25.176001"
   width="52.681999"
   y="60.464993"
   x="205.56502" /><path
   sodipodi:nodetypes="ssccccsssccsscccss"
   style="fill:#bccf00"
   inkscape:connector-curvature="0"
   id="path80"
   d="m 220.44903,103.428 c -2.827,0 -3.577,-2.424 -3.577,-3.369 V 95.26 h -11.307 v 45.887 l 21.2334,0.0977 0.0977,-4.0407 c 0.0228,-0.94473 1.1549,-3.6999 3.7469,-3.6999 2.707,0 3.7256,2.85162 3.7322,3.7976 l 0.0275,3.943 23.8133,-0.0977 v -3.943 c 0,-0.945 0.531,-3.744 3.841,-3.744 0.944,0 1.707,0.344 1.707,0.344 l 0.035,-38.543 h -39.802 v 4.799 c 0,0.944 -0.531,3.368 -3.548,3.368 z" />
<g
   id="Piktogramme"
   transform="translate(-257.00297,-261.103)">
	<g
   id="g91">
		<path
   d="m 500.934,335.957 c 0.361,0 0.651,-0.293 0.651,-0.65 v -3.908 c 0,-2.311 -0.292,-2.604 -2.604,-2.604 h -4.049 c -0.265,0 -0.325,0 -0.325,-0.932 0,-0.725 0,-2.232 -1.628,-2.232 h -3.906 c -1.609,0 -1.653,1.496 -1.675,2.215 -0.028,0.949 -0.102,0.949 -0.372,0.949 -0.167,0 -0.209,0 -0.273,-0.012 0,-0.021 -0.063,-0.053 -0.063,-0.07 -0.011,-0.586 -0.19,-1.363 -1.641,-1.363 h -0.903 c -0.015,0 -0.028,0 -0.043,0.002 -0.375,0.008 -0.863,0.074 -1.184,0.402 -0.328,0.332 -0.321,0.738 -0.317,0.98 0,0.012 -0.035,0.029 -0.035,0.045 -0.063,0.01 -0.128,0.016 -0.278,0.016 -0.427,0 -0.796,0.154 -1.067,0.445 -0.581,0.625 -0.507,1.652 -0.475,2.092 0,0.031 0.004,0.057 0.004,0.066 v 7.814 c 0,2.313 0.292,2.604 2.604,2.604 h 15.627 c 2.312,0 2.604,-0.291 2.604,-2.604 0,-0.359 -0.29,-0.652 -0.651,-0.652 -0.358,0 -0.65,0.293 -0.65,0.652 0,0.527 0,1.072 -0.059,1.242 -0.172,0.059 -0.717,0.059 -1.243,0.059 h -15.627 c -0.526,0 -1.073,0 -1.243,-0.059 -0.059,-0.17 -0.059,-0.715 -0.059,-1.242 v -7.814 c 0,-0.031 -0.004,-0.086 -0.008,-0.16 -0.057,-0.783 0.059,-1.031 0.131,-1.109 0.009,-0.012 0.027,-0.031 0.113,-0.031 0.385,0 0.942,-0.043 1.3,-0.404 0.326,-0.332 0.236,-0.719 0.352,-0.932 0.022,-0.039 0.163,-0.102 0.277,-0.111 h 0.832 c 0.167,0 0.339,0.094 0.349,0.137 0.124,0.572 0.178,1.311 1.628,1.311 1.607,0 1.651,-1.496 1.673,-2.215 0.029,-0.949 0.103,-0.949 0.374,-0.949 h 3.906 c 0.263,0 0.325,0 0.325,0.93 0,0.727 0,2.234 1.628,2.234 h 4.049 c 0.526,0 1.071,0 1.243,0.059 0.059,0.17 0.059,0.715 0.059,1.242 v 3.908 c -0.002,0.356 0.29,0.649 0.649,0.649 z"
   id="path85"
   inkscape:connector-curvature="0"
   style="fill:#ffffff" />
		<path
   d="m 491.073,330.064 c -2.667,0 -4.836,2.168 -4.836,4.836 0,2.668 2.169,4.838 4.836,4.838 2.668,0 4.838,-2.17 4.838,-4.838 0,-2.668 -2.17,-4.836 -4.838,-4.836 z m 0,8.36 c -1.943,0 -3.521,-1.582 -3.521,-3.523 0,-1.941 1.578,-3.521 3.521,-3.521 1.943,0 3.521,1.58 3.521,3.521 0,1.941 -1.577,3.523 -3.521,3.523 z"
   id="path87"
   inkscape:connector-curvature="0"
   style="fill:#ffffff" />
		<path
   d="m 491.073,331.805 c -1.706,0 -3.094,1.389 -3.094,3.096 0,0.363 0.293,0.658 0.654,0.658 0.362,0 0.658,-0.295 0.658,-0.658 0,-0.982 0.799,-1.781 1.781,-1.781 0.363,0 0.656,-0.295 0.656,-0.658 0,-0.363 -0.291,-0.657 -0.655,-0.657 z"
   id="path89"
   inkscape:connector-curvature="0"
   style="fill:#ffffff" />
	</g>
	<g
   id="g97">
		<path
   d="m 498.835,380.779 c 0,0.303 0.245,0.549 0.55,0.549 0.301,0 0.548,-0.246 0.548,-0.549 v -2.754 c 1.443,-0.059 1.646,-0.436 1.646,-2.182 0,-1.752 -0.205,-2.127 -1.657,-2.186 -0.059,-1.453 -0.433,-1.654 -2.185,-1.654 h -13.164 c -1.949,0 -2.194,0.244 -2.194,2.193 v 3.291 c 0,1.746 0.201,2.125 1.645,2.184 v 1.107 c 0,0.303 0.247,0.549 0.55,0.549 0.302,0 0.548,-0.246 0.548,-0.549 v -1.096 h 2.742 c 1.371,0 1.371,-0.998 1.371,-1.373 0,-0.076 0,-0.186 0.012,-0.244 0.034,-0.014 0.113,-0.029 0.264,-0.029 h 1.645 c 0.445,0 0.905,0 1.048,0.049 0.05,0.145 0.05,0.604 0.05,1.047 v 1.646 c 0,0.445 0,0.904 -0.05,1.049 -0.143,0.049 -0.603,0.049 -1.048,0.049 h -8.228 c -1.948,0 -2.194,0.246 -2.194,2.193 0,1.949 0.246,2.193 2.194,2.193 h 14.811 c 1.056,0 1.537,0 1.886,-0.352 0.324,-0.328 0.321,-0.766 0.313,-1.43 -0.002,-0.125 -0.004,-0.262 -0.004,-0.412 0,-0.303 -0.247,-0.547 -0.548,-0.547 -0.305,0 -0.55,0.244 -0.55,0.547 0,0.156 0.002,0.297 0.004,0.424 0.002,0.242 0.005,0.51 -0.013,0.635 -0.179,0.039 -0.62,0.039 -1.089,0.039 h -14.811 c -0.443,0 -0.903,0 -1.047,-0.049 -0.051,-0.145 -0.051,-0.604 -0.051,-1.049 0,-0.443 0,-0.902 0.051,-1.047 0.144,-0.049 0.604,-0.049 1.047,-0.049 h 8.228 c 1.948,0 2.194,-0.246 2.194,-2.195 v -1.646 c 0,-1.945 -0.246,-2.193 -2.194,-2.193 h -1.645 c -1.371,0 -1.371,0.996 -1.371,1.371 0,0.078 0,0.188 -0.01,0.246 -0.036,0.012 -0.115,0.029 -0.266,0.029 h -3.29 c -0.445,0 -0.904,0 -1.049,-0.051 -0.05,-0.143 -0.05,-0.602 -0.05,-1.047 v -3.291 c 0,-0.443 0,-0.904 0.05,-1.047 0.145,-0.051 0.604,-0.051 1.049,-0.051 h 13.164 c 0.445,0 0.903,0 1.048,0.051 0.05,0.143 0.05,0.604 0.05,1.047 z m 1.646,-4.935 c 0,0.445 0,0.902 -0.05,1.045 -0.083,0.029 -0.271,0.041 -0.499,0.047 v -2.186 c 0.228,0.004 0.416,0.018 0.499,0.045 0.05,0.144 0.05,0.601 0.05,1.049 z"
   id="path93"
   inkscape:connector-curvature="0"
   style="fill:#ffffff" />
		<path
   d="m 495.853,374.381 c -1.078,0 -1.954,0.875 -1.954,1.951 0,1.078 0.876,1.955 1.954,1.955 1.076,0 1.95,-0.877 1.95,-1.955 0,-1.076 -0.874,-1.951 -1.95,-1.951 z m 0,2.808 c -0.473,0 -0.858,-0.385 -0.858,-0.857 0,-0.471 0.386,-0.855 0.858,-0.855 0.471,0 0.854,0.385 0.854,0.855 0,0.473 -0.384,0.857 -0.854,0.857 z"
   id="path95"
   inkscape:connector-curvature="0"
   style="fill:#ffffff" />
	</g>
	<g
   id="g103">
		<path
   d="m 350.497,469.66 c -0.074,-0.533 -0.496,-0.902 -1.338,-1.635 l -1.47,-1.281 c -0.841,-0.732 -1.263,-1.1 -1.8,-1.1 -0.209,0 -0.389,0.055 -0.563,0.156 -0.03,-0.045 -0.063,-0.086 -0.104,-0.123 l -1.635,-1.422 c -0.236,-0.207 -0.596,-0.182 -0.803,0.055 -0.205,0.236 -0.182,0.596 0.056,0.803 l 1.634,1.424 c 0.012,0.008 0.022,0.016 0.033,0.023 -0.068,0.078 -0.139,0.16 -0.215,0.246 l -3.363,3.859 c -0.059,0.068 -0.111,0.131 -0.165,0.191 -0.009,-0.01 -0.017,-0.02 -0.026,-0.029 -0.178,-0.154 -0.379,-0.158 -0.556,-0.162 -0.087,-0.002 -0.265,-0.006 -0.375,-0.039 10e-4,-0.031 0.003,-0.063 0.003,-0.088 0.011,-0.285 0.025,-0.678 -0.25,-0.982 -0.24,-0.264 -0.582,-0.307 -0.855,-0.342 -0.055,-0.006 -0.133,-0.016 -0.194,-0.027 -0.003,-0.051 -0.005,-0.109 -0.007,-0.156 -0.005,-0.279 -0.016,-0.664 -0.273,-0.953 -0.24,-0.268 -0.594,-0.326 -0.875,-0.371 -0.057,-0.01 -0.129,-0.021 -0.189,-0.035 0.001,-0.039 0.003,-0.08 0.004,-0.113 0.008,-0.271 0.02,-0.645 -0.238,-0.936 -0.25,-0.279 -0.605,-0.324 -0.892,-0.361 -0.048,-0.006 -0.112,-0.016 -0.166,-0.023 -0.005,-0.059 -0.007,-0.127 -0.009,-0.184 -0.008,-0.289 -0.018,-0.65 -0.268,-0.93 -0.254,-0.285 -0.611,-0.338 -0.898,-0.381 -0.045,-0.006 -0.102,-0.014 -0.151,-0.023 0.001,-0.043 0.001,-0.088 0.003,-0.123 0.008,-0.268 0.018,-0.633 -0.229,-0.91 -0.262,-0.297 -0.641,-0.344 -0.916,-0.377 -0.042,-0.004 -0.095,-0.01 -0.141,-0.02 -0.005,-0.061 -0.007,-0.141 -0.008,-0.195 -0.007,-0.281 -0.016,-0.629 -0.249,-0.893 -0.286,-0.324 -0.696,-0.344 -0.968,-0.355 -0.002,0 -0.003,0 -0.003,0 -0.003,-0.041 -0.007,-0.084 -0.01,-0.119 -0.023,-0.303 -0.052,-0.68 -0.276,-0.969 -0.105,-0.137 -0.275,-0.285 -0.546,-0.514 -0.155,-0.133 -0.413,-0.354 -0.464,-0.418 -0.062,-0.102 -0.099,-0.162 0.105,-0.457 0.327,-0.469 1.354,-1.658 1.518,-1.822 l 0.197,-0.197 c 0.238,-0.24 0.508,-0.512 0.621,-0.568 0.158,0.055 0.584,0.426 0.997,0.785 l 5.656,4.928 c 0.237,0.207 0.597,0.184 0.804,-0.055 0.207,-0.236 0.182,-0.596 -0.055,-0.803 l -5.657,-4.928 c -1.541,-1.344 -1.882,-1.463 -3.174,-0.162 l -0.193,0.195 c -0.188,0.188 -1.274,1.443 -1.647,1.979 -0.43,0.617 -0.475,1.158 -0.141,1.701 0.117,0.191 0.34,0.387 0.693,0.688 0.128,0.107 0.318,0.271 0.377,0.336 0.026,0.068 0.041,0.256 0.051,0.369 0.022,0.297 0.047,0.604 0.242,0.848 0.238,0.293 0.592,0.309 0.852,0.32 0.035,0.002 0.083,0.004 0.127,0.008 0.002,0.045 0.004,0.092 0.004,0.131 0.008,0.299 0.016,0.672 0.271,0.959 0.249,0.281 0.612,0.326 0.878,0.357 0.043,0.006 0.099,0.014 0.147,0.021 -0.001,0.037 -0.001,0.072 -0.003,0.104 -0.007,0.273 -0.018,0.648 0.236,0.934 0.247,0.277 0.6,0.33 0.884,0.373 0.056,0.008 0.13,0.018 0.188,0.031 0.005,0.059 0.007,0.131 0.009,0.186 0.008,0.291 0.019,0.654 0.271,0.938 0.251,0.281 0.608,0.328 0.896,0.365 0.042,0.004 0.093,0.012 0.14,0.018 -10e-4,0.039 -0.002,0.08 -0.004,0.113 -0.008,0.27 -0.02,0.635 0.234,0.92 0.25,0.281 0.613,0.34 0.905,0.387 0.056,0.01 0.13,0.023 0.188,0.035 0.006,0.061 0.007,0.139 0.009,0.195 0.007,0.283 0.016,0.635 0.26,0.906 0.264,0.295 0.652,0.344 0.934,0.381 0.035,0.004 0.076,0.008 0.117,0.014 -10e-4,0.049 -0.002,0.1 -0.004,0.137 -0.01,0.266 -0.023,0.598 0.217,0.857 0.365,0.398 0.892,0.439 1.193,0.449 -0.084,0.193 -0.115,0.387 -0.088,0.602 0.074,0.533 0.496,0.9 1.338,1.633 l 1.471,1.283 c 0.841,0.73 1.262,1.1 1.799,1.1 0.584,0 0.943,-0.414 1.596,-1.162 l 3.364,-3.861 c 0.651,-0.751 1.01,-1.163 0.932,-1.739 z m -1.79,0.988 -3.365,3.863 c -0.302,0.346 -0.614,0.703 -0.745,0.768 -0.161,-0.049 -0.609,-0.439 -1.044,-0.818 l -1.47,-1.279 c -0.435,-0.381 -0.884,-0.771 -0.953,-0.924 0.045,-0.139 0.357,-0.496 0.658,-0.844 l 3.364,-3.861 c 0.302,-0.346 0.614,-0.703 0.745,-0.768 0.161,0.049 0.609,0.439 1.044,0.818 l 1.472,1.279 c 0.434,0.379 0.883,0.77 0.951,0.924 -0.045,0.139 -0.357,0.497 -0.657,0.842 z"
   id="path99"
   inkscape:connector-curvature="0"
   style="fill:#ffffff" />
		<path
   d="m 346.506,468.104 c -0.198,-0.172 -0.497,-0.152 -0.67,0.047 l -3.364,3.859 c -0.171,0.199 -0.15,0.498 0.047,0.67 l 1.471,1.279 c 0.087,0.078 0.197,0.119 0.312,0.119 0.011,0 0.021,0 0.032,-0.002 0.125,-0.01 0.242,-0.066 0.325,-0.162 l 3.364,-3.861 c 0.083,-0.094 0.125,-0.219 0.115,-0.344 -0.01,-0.125 -0.066,-0.242 -0.162,-0.326 z m -2.251,4.83 -0.756,-0.658 2.741,-3.146 0.757,0.66 z"
   id="path101"
   inkscape:connector-curvature="0"
   style="fill:#ffffff" />
	</g>
	<g
   id="g121">
		<path
   d="m 320.036,419.715 v -4.613 l 2.686,-2.785 c 0.104,-0.107 0.162,-0.252 0.162,-0.402 v -2.793 c 0,-0.32 -0.26,-0.58 -0.581,-0.58 -0.321,0 -0.581,0.26 -0.581,0.58 v 2.559 l -2.686,2.783 c -0.104,0.109 -0.162,0.252 -0.162,0.402 v 4.85 c -0.644,0.238 -1.104,0.855 -1.104,1.58 0,0.93 0.756,1.688 1.686,1.688 0.929,0 1.686,-0.758 1.686,-1.688 -10e-4,-0.726 -0.462,-1.343 -1.106,-1.581 z m -0.581,2.103 c -0.289,0 -0.523,-0.234 -0.523,-0.523 0,-0.289 0.234,-0.523 0.523,-0.523 0.288,0 0.523,0.234 0.523,0.523 0,0.289 -0.235,0.523 -0.523,0.523 z"
   id="path105"
   inkscape:connector-curvature="0"
   style="fill:#ffffff" />
		<path
   d="m 321.335,418.256 c 0,0.93 0.756,1.686 1.686,1.686 0.93,0 1.686,-0.756 1.686,-1.686 0,-0.93 -0.756,-1.686 -1.686,-1.686 -0.93,0 -1.686,0.756 -1.686,1.686 z m 1.686,-0.524 c 0.289,0 0.523,0.234 0.523,0.523 0,0.287 -0.234,0.523 -0.523,0.523 -0.289,0 -0.523,-0.236 -0.523,-0.523 -10e-4,-0.288 0.233,-0.523 0.523,-0.523 z"
   id="path107"
   inkscape:connector-curvature="0"
   style="fill:#ffffff" />
		<path
   d="m 336.05,426.986 c -0.93,0 -1.686,0.756 -1.686,1.684 0,0.268 0.064,0.521 0.176,0.746 l -4.486,4.471 c -0.108,0.111 -0.17,0.258 -0.17,0.414 v 2.592 c 0,0.32 0.26,0.58 0.581,0.58 0.321,0 0.581,-0.26 0.581,-0.58 v -2.352 l 4.335,-4.322 c 0.206,0.088 0.432,0.139 0.669,0.139 0.93,0 1.686,-0.758 1.686,-1.688 -10e-4,-0.928 -0.757,-1.684 -1.686,-1.684 z m 0,2.209 c -0.288,0 -0.523,-0.236 -0.523,-0.525 0,-0.287 0.235,-0.521 0.523,-0.521 0.289,0 0.523,0.234 0.523,0.521 0,0.289 -0.234,0.525 -0.523,0.525 z"
   id="path109"
   inkscape:connector-curvature="0"
   style="fill:#ffffff" />
		<path
   d="m 325.208,418.275 c 0,0.928 0.756,1.686 1.687,1.686 0.929,0 1.686,-0.758 1.686,-1.686 0,-0.701 -0.431,-1.303 -1.04,-1.557 v -1.902 c 0,-0.166 -0.07,-0.324 -0.195,-0.434 l -0.695,-0.617 v -4.641 c 0,-0.32 -0.26,-0.58 -0.58,-0.58 -0.321,0 -0.581,0.26 -0.581,0.58 v 4.9 c 0,0.166 0.071,0.324 0.194,0.434 l 0.695,0.619 v 1.592 c -0.679,0.22 -1.171,0.856 -1.171,1.606 z m 1.687,0.524 c -0.29,0 -0.523,-0.236 -0.523,-0.523 0,-0.289 0.233,-0.523 0.523,-0.523 0.288,0 0.522,0.234 0.522,0.523 0,0.287 -0.234,0.523 -0.522,0.523 z"
   id="path111"
   inkscape:connector-curvature="0"
   style="fill:#ffffff" />
		<path
   d="m 332.066,421.295 c 0,-0.725 -0.462,-1.342 -1.104,-1.58 v -5.119 c 0,-0.156 -0.063,-0.307 -0.175,-0.416 l -1.631,-1.592 v -3.463 c 0,-0.32 -0.261,-0.58 -0.581,-0.58 -0.32,0 -0.58,0.26 -0.58,0.58 v 3.707 c 0,0.158 0.063,0.307 0.175,0.416 l 1.63,1.592 v 4.875 c -0.644,0.238 -1.105,0.855 -1.105,1.58 0,0.93 0.758,1.688 1.687,1.688 0.93,-10e-4 1.684,-0.758 1.684,-1.688 z m -2.209,0 c 0,-0.289 0.235,-0.523 0.523,-0.523 0.288,0 0.523,0.234 0.523,0.523 0,0.289 -0.235,0.523 -0.523,0.523 -0.288,0 -0.523,-0.234 -0.523,-0.523 z"
   id="path113"
   inkscape:connector-curvature="0"
   style="fill:#ffffff" />
		<path
   d="m 335.668,417.453 v 2.277 c -0.622,0.248 -1.063,0.855 -1.063,1.564 0,0.93 0.757,1.688 1.686,1.688 0.93,0 1.686,-0.758 1.686,-1.688 0,-0.74 -0.48,-1.369 -1.146,-1.596 v -2.486 c 0,-0.154 -0.061,-0.303 -0.17,-0.412 l -5.125,-5.125 v -2.551 c 0,-0.32 -0.26,-0.58 -0.582,-0.58 -0.32,0 -0.58,0.26 -0.58,0.58 v 2.791 c 0,0.154 0.061,0.301 0.169,0.412 z m 0.622,4.365 c -0.287,0 -0.523,-0.234 -0.523,-0.523 0,-0.289 0.236,-0.523 0.523,-0.523 0.289,0 0.523,0.234 0.523,0.523 0,0.289 -0.234,0.523 -0.523,0.523 z"
   id="path115"
   inkscape:connector-curvature="0"
   style="fill:#ffffff" />
		<path
   d="m 323.403,428.393 v -1.15 c 0.688,-0.213 1.189,-0.854 1.189,-1.611 0,-0.928 -0.756,-1.686 -1.686,-1.686 -0.93,0 -1.687,0.758 -1.687,1.686 0,0.693 0.421,1.289 1.02,1.549 v 1.443 c 0,0.15 0.058,0.293 0.16,0.4 l 3.088,3.248 v 4.588 c 0,0.32 0.26,0.58 0.581,0.58 0.32,0 0.58,-0.26 0.58,-0.58 v -4.82 c 0,-0.148 -0.057,-0.291 -0.158,-0.4 z m -0.496,-3.284 c 0.288,0 0.523,0.232 0.523,0.521 0,0.289 -0.235,0.523 -0.523,0.523 -0.289,0 -0.523,-0.234 -0.523,-0.523 0,-0.289 0.234,-0.521 0.523,-0.521 z"
   id="path117"
   inkscape:connector-curvature="0"
   style="fill:#ffffff" />
		<path
   d="m 327.298,428.256 v -1.045 c 0.643,-0.236 1.104,-0.855 1.104,-1.58 0,-0.928 -0.756,-1.686 -1.685,-1.686 -0.931,0 -1.687,0.758 -1.687,1.686 0,0.725 0.461,1.344 1.104,1.58 v 1.258 c 0,0.139 0.05,0.271 0.138,0.377 l 1.572,1.85 v 6.164 c 0,0.32 0.261,0.58 0.582,0.58 0.32,0 0.581,-0.26 0.581,-0.58 v -6.379 c 0,-0.137 -0.05,-0.27 -0.139,-0.375 z m -0.581,-3.147 c 0.288,0 0.522,0.232 0.522,0.521 0,0.289 -0.234,0.523 -0.522,0.523 -0.29,0 -0.524,-0.234 -0.524,-0.523 0,-0.289 0.234,-0.521 0.524,-0.521 z"
   id="path119"
   inkscape:connector-curvature="0"
   style="fill:#ffffff" />
	</g>
	<g
   id="g127">
		<path
   d="m 502.45,308.576 h -3.065 v -2.666 c 2.118,-0.207 4.121,-1.785 4.121,-4.625 0,-0.232 -0.189,-0.422 -0.423,-0.422 -0.234,0 -0.423,0.189 -0.423,0.422 0,1.18 -0.403,2.166 -1.166,2.852 -0.682,0.615 -1.6,0.951 -2.586,0.951 -1.789,0 -3.715,-1.189 -3.715,-3.803 0,-0.232 -0.188,-0.422 -0.423,-0.422 -0.232,0 -0.423,0.189 -0.423,0.422 0,3.018 2.108,4.48 4.192,4.635 v 2.656 h -3.064 c -0.232,0 -0.423,0.189 -0.423,0.422 0,0.234 0.19,0.424 0.423,0.424 h 6.975 c 0.232,0 0.422,-0.189 0.422,-0.424 0,-0.232 -0.189,-0.422 -0.422,-0.422 z"
   id="path123"
   inkscape:connector-curvature="0"
   style="fill:#ffffff" />
		<path
   d="m 498.962,303.734 c 1.446,0 2.536,-1.145 2.536,-2.66 v -1.408 c 0,-0.234 -0.188,-0.424 -0.422,-0.424 -0.234,0 -0.423,0.189 -0.423,0.424 v 1.408 c 0,1.051 -0.711,1.814 -1.691,1.814 -1.006,0 -1.707,-0.711 -1.707,-1.727 0,-0.514 10e-4,-1.24 0.003,-1.959 0.003,-0.707 0.006,-1.408 0.006,-1.898 0,-1.086 0.777,-1.936 1.77,-1.936 0.447,0 0.819,0.145 1.104,0.43 0.341,0.342 0.527,0.857 0.524,1.451 0,0.053 0,0.107 0.003,0.162 -0.001,0.01 -0.001,0.021 -0.003,0.031 v 0.078 h 0.009 c 0.024,0.229 0.107,0.43 0.412,0.432 h 0.002 c 0.096,0 0.386,-0.033 0.419,-0.428 h 0.005 c 0,-0.006 0,-0.02 0,-0.045 0,-0.01 0,-0.021 0,-0.031 0,-0.008 0,-0.018 0,-0.025 0,-0.041 0,-0.096 0,-0.17 0.002,-0.82 -0.271,-1.549 -0.771,-2.051 -0.443,-0.445 -1.032,-0.68 -1.703,-0.68 -1.467,0 -2.615,1.223 -2.615,2.781 0,0.49 -0.002,1.189 -0.005,1.896 -0.002,0.719 -0.005,1.445 -0.005,1.961 -0.002,1.492 1.071,2.574 2.552,2.574 z"
   id="path125"
   inkscape:connector-curvature="0"
   style="fill:#ffffff" />
	</g>
	<g
   id="g139">
		<path
   d="m 323.202,378.809 c 0.076,0.201 0.268,0.326 0.471,0.326 0.059,0 0.119,-0.01 0.178,-0.033 l 2.547,-0.961 c 0.26,-0.098 0.393,-0.389 0.293,-0.648 -0.098,-0.26 -0.388,-0.391 -0.648,-0.293 l -2.547,0.959 c -0.262,0.099 -0.393,0.39 -0.294,0.65 z"
   id="path129"
   inkscape:connector-curvature="0"
   style="fill:#ffffff" />
		<path
   d="m 320.594,380.232 c 0.015,-0.012 0.027,-0.025 0.04,-0.039 0.012,-0.01 0.021,-0.023 0.03,-0.035 0.011,-0.014 0.021,-0.027 0.029,-0.043 0.009,-0.014 0.017,-0.027 0.023,-0.041 0.006,-0.014 0.014,-0.029 0.02,-0.045 0.006,-0.016 0.011,-0.031 0.015,-0.047 0.004,-0.016 0.009,-0.031 0.012,-0.045 0.002,-0.02 0.004,-0.037 0.005,-0.057 0.001,-0.01 0.003,-0.018 0.003,-0.031 0,-0.002 -0.002,-0.008 -0.002,-0.012 0,-0.02 -0.002,-0.037 -0.005,-0.055 -0.002,-0.016 -0.003,-0.029 -0.007,-0.045 -0.004,-0.016 -0.009,-0.031 -0.015,-0.047 -0.005,-0.016 -0.01,-0.031 -0.017,-0.047 -0.006,-0.014 -0.014,-0.025 -0.021,-0.039 -0.009,-0.016 -0.018,-0.033 -0.029,-0.047 -0.002,-0.004 -0.004,-0.008 -0.006,-0.012 -0.008,-0.01 -0.016,-0.016 -0.021,-0.023 -0.012,-0.014 -0.023,-0.027 -0.037,-0.039 -0.012,-0.012 -0.025,-0.021 -0.037,-0.031 -0.014,-0.01 -0.025,-0.02 -0.04,-0.029 -0.015,-0.008 -0.028,-0.016 -0.044,-0.023 -0.014,-0.006 -0.028,-0.014 -0.043,-0.018 -0.016,-0.008 -0.031,-0.012 -0.049,-0.016 -0.015,-0.004 -0.029,-0.01 -0.045,-0.012 -0.019,-0.002 -0.037,-0.004 -0.054,-0.006 -0.011,0 -0.021,-0.002 -0.032,-0.002 h -4.11 c -0.278,0 -0.504,0.225 -0.504,0.502 0,0.281 0.226,0.506 0.504,0.506 h 2.612 l -2.512,1.902 -3.412,-3.41 6.365,-4.09 c 0.234,-0.152 0.302,-0.463 0.151,-0.697 -0.149,-0.234 -0.462,-0.303 -0.695,-0.152 l -6.893,4.428 c -0.128,0.082 -0.212,0.219 -0.228,0.371 -0.018,0.152 0.036,0.303 0.145,0.41 l 4.164,4.164 c 0.098,0.1 0.227,0.146 0.356,0.146 0.106,0 0.214,-0.033 0.304,-0.102 l 4.057,-3.074 c 0.009,-0.004 0.014,-0.012 0.023,-0.018 z"
   id="path131"
   inkscape:connector-curvature="0"
   style="fill:#ffffff" />
		<path
   d="m 317.657,377.191 c -0.265,-0.086 -0.55,0.057 -0.638,0.32 -0.088,0.263 0.055,0.549 0.318,0.637 l 2.881,0.961 c 0.054,0.018 0.106,0.025 0.159,0.025 0.211,0 0.407,-0.135 0.479,-0.346 0.088,-0.264 -0.055,-0.547 -0.319,-0.637 z"
   id="path133"
   inkscape:connector-curvature="0"
   style="fill:#ffffff" />
		<path
   d="m 332.146,378.32 -7.188,-4.617 c -0.234,-0.15 -0.547,-0.082 -0.696,0.152 -0.151,0.232 -0.083,0.545 0.151,0.695 l 6.656,4.275 -9.207,9.037 -3.598,-3.596 5.246,-3.912 h 4.115 c 0.277,0 0.503,-0.225 0.503,-0.506 0,-0.277 -0.226,-0.502 -0.503,-0.502 h -4.281 c -0.004,0 -0.008,0 -0.012,0 -0.02,0.002 -0.037,0.004 -0.056,0.008 -0.015,0 -0.03,0.002 -0.044,0.006 -0.016,0.002 -0.031,0.008 -0.047,0.014 -0.016,0.006 -0.032,0.01 -0.048,0.016 -0.013,0.008 -0.024,0.014 -0.037,0.021 -0.017,0.01 -0.033,0.018 -0.049,0.029 -0.003,0.004 -0.007,0.004 -0.01,0.006 l -5.847,4.361 c -0.01,0.008 -0.018,0.018 -0.027,0.025 -0.009,0.008 -0.02,0.014 -0.027,0.021 -0.004,0.004 -0.006,0.008 -0.009,0.012 -0.013,0.012 -0.024,0.027 -0.036,0.043 -0.008,0.012 -0.018,0.023 -0.026,0.037 -0.008,0.014 -0.016,0.029 -0.023,0.045 -0.007,0.014 -0.015,0.027 -0.021,0.043 -0.006,0.016 -0.009,0.031 -0.014,0.047 -0.004,0.016 -0.008,0.029 -0.01,0.047 -0.004,0.016 -0.004,0.031 -0.006,0.047 -10e-4,0.016 -0.003,0.033 -0.002,0.049 0,0.016 0.002,0.033 0.005,0.049 0.002,0.016 0.003,0.031 0.007,0.047 0.003,0.016 0.008,0.031 0.013,0.047 0.006,0.016 0.011,0.031 0.018,0.047 0.005,0.014 0.014,0.027 0.021,0.041 0.01,0.016 0.019,0.031 0.028,0.047 0.003,0.002 0.005,0.008 0.007,0.012 0.007,0.008 0.014,0.014 0.02,0.02 0.01,0.012 0.018,0.023 0.029,0.035 l 4.361,4.361 c 0.098,0.098 0.227,0.148 0.356,0.148 0.127,0 0.255,-0.049 0.352,-0.145 l 10.015,-9.83 c 0.109,-0.107 0.164,-0.258 0.148,-0.41 -0.016,-0.152 -0.099,-0.29 -0.227,-0.372 z"
   id="path135"
   inkscape:connector-curvature="0"
   style="fill:#ffffff" />
		<path
   d="m 312.046,370.543 h 7.128 v 1.676 c 0,0.1 0.03,0.197 0.085,0.279 l 2.097,3.145 0.001,2.574 c 0,0.277 0.227,0.502 0.504,0.502 h 0.001 c 0.278,0 0.504,-0.225 0.503,-0.504 l -0.002,-2.572 2.096,-3.145 c 0.055,-0.082 0.084,-0.18 0.084,-0.279 v -1.676 h 7.129 c 0.279,0 0.504,-0.227 0.504,-0.504 0,-0.279 -0.225,-0.504 -0.504,-0.504 h -7.633 c -0.276,0 -0.502,0.225 -0.502,0.504 v 2.027 l -1.677,2.514 -1.24,-1.857 h 1.523 c 0.277,0 0.504,-0.227 0.504,-0.504 0,-0.277 -0.227,-0.504 -0.504,-0.504 h -1.961 v -1.676 c 0,-0.279 -0.226,-0.504 -0.503,-0.504 h -7.633 c -0.277,0 -0.504,0.225 -0.504,0.504 0,0.277 0.227,0.504 0.504,0.504 z"
   id="path137"
   inkscape:connector-curvature="0"
   style="fill:#ffffff" />
	</g>
	<path
   d="m 467.237,464.602 h 2.209 c 0.307,0 0.554,-0.246 0.554,-0.553 0,-0.307 -0.247,-0.555 -0.554,-0.555 h -2.209 v -2.855 h 2.209 c 0.307,0 0.554,-0.248 0.554,-0.553 0,-0.309 -0.247,-0.555 -0.554,-0.555 h -2.209 v -1.43 c 0,-2.297 -0.238,-2.535 -2.537,-2.535 h -7.926 c -2.299,0 -2.535,0.238 -2.535,2.535 v 1.43 h -2.209 c -0.307,0 -0.556,0.246 -0.556,0.555 0,0.305 0.249,0.553 0.556,0.553 h 2.209 v 2.855 h -2.209 c -0.307,0 -0.556,0.248 -0.556,0.555 0,0.307 0.249,0.553 0.556,0.553 h 2.209 v 2.855 h -2.209 c -0.307,0 -0.556,0.248 -0.556,0.553 0,0.307 0.249,0.555 0.556,0.555 h 2.209 v 2.857 h -2.209 c -0.307,0 -0.556,0.246 -0.556,0.553 0,0.305 0.249,0.555 0.556,0.555 h 2.209 v 1.426 c 0,2.299 0.236,2.535 2.535,2.535 h 7.926 c 2.299,0 2.537,-0.236 2.537,-2.535 v -1.426 h 2.209 c 0.307,0 0.554,-0.25 0.554,-0.555 0,-0.307 -0.247,-0.553 -0.554,-0.553 h -2.764 c -0.307,0 -0.554,0.246 -0.554,0.553 v 1.98 c 0,0.605 0,1.229 -0.083,1.342 -0.082,0.061 -0.401,0.078 -0.79,0.084 v -1.426 c 0,-2.297 -0.238,-2.533 -2.537,-2.533 h -3.963 c -2.299,0 -2.535,0.236 -2.535,2.533 v 1.426 c -0.389,-0.004 -0.708,-0.023 -0.786,-0.08 -0.089,-0.117 -0.089,-0.74 -0.089,-1.346 v -7.371 h 2.921 c 0.253,1.131 1.265,1.98 2.473,1.98 1.206,0 2.218,-0.85 2.471,-1.98 h 2.919 v 2.352 c 0,0.305 0.247,0.553 0.554,0.553 0.306,0 0.555,-0.248 0.555,-0.553 v -0.371 h 2.209 c 0.307,0 0.554,-0.248 0.554,-0.555 0,-0.305 -0.247,-0.553 -0.554,-0.553 h -2.209 v -2.855 z m -9.825,8.013 c 0.117,-0.086 0.74,-0.086 1.344,-0.086 h 3.963 c 0.605,0 1.229,0 1.342,0.082 0.088,0.117 0.088,0.74 0.088,1.344 v 1.428 h -6.821 v -1.428 c -10e-4,-0.603 -10e-4,-1.226 0.084,-1.34 z m -0.085,-15.939 h 6.821 v 1.426 c 0,0.605 0,1.229 -0.086,1.344 -0.115,0.086 -0.74,0.086 -1.344,0.086 h -3.963 c -0.604,0 -1.227,0 -1.34,-0.084 -0.089,-0.117 -0.089,-0.74 -0.089,-1.346 v -1.426 z m 3.412,10.781 c -0.788,0 -1.43,-0.641 -1.43,-1.428 0,-0.787 0.642,-1.428 1.43,-1.428 0.786,0 1.426,0.641 1.426,1.428 0,0.787 -0.64,1.428 -1.426,1.428 z m 2.471,-1.982 c -0.253,-1.131 -1.265,-1.98 -2.471,-1.98 -1.208,0 -2.22,0.85 -2.473,1.98 h -2.921 v -7.373 c 0,-0.602 0,-1.225 0.085,-1.34 0.08,-0.061 0.401,-0.078 0.79,-0.084 v 1.424 c 0,2.301 0.236,2.537 2.535,2.537 h 3.963 c 2.299,0 2.537,-0.236 2.537,-2.537 v -1.424 c 0.389,0.006 0.708,0.023 0.786,0.082 0.087,0.117 0.087,0.74 0.087,1.342 v 7.373 z"
   id="path141"
   inkscape:connector-curvature="0"
   style="fill:#333333" />
	<g
   id="g155">
		<g
   id="g145">
			<path
   d="M 392.563,293.52"
   id="path143"
   inkscape:connector-curvature="0"
   style="fill:#333333" />
		</g>
		<g
   id="g149">
			<path
   d="m 394.353,299.578 h -6.437 c -0.93,0 -1.687,-1.02 -1.687,-1.949 v -0.031 c 0,-0.93 0.757,-1.977 1.687,-1.977 h 1.239 v -6.85 h -1.239 c -0.93,0 -1.687,-1.035 -1.687,-1.967 v -0.088 c 0,-0.93 0.757,-1.902 1.687,-1.902 h 3.511 c 0.929,0 1.687,0.756 1.687,1.686 v 7.301 c 0,0.301 -0.246,0.547 -0.55,0.547 -0.303,0 -0.55,-0.246 -0.55,-0.547 V 286.5 c 0,-0.324 -0.263,-0.588 -0.587,-0.588 h -3.511 c -0.324,0 -0.588,0.529 -0.588,0.854 v 0.088 c 0,0.324 0.264,0.818 0.588,0.818 h 1.787 c 0.305,0 0.55,0.246 0.55,0.551 v 7.947 c 0,0.305 -0.245,0.549 -0.55,0.549 h -1.787 c -0.324,0 -0.588,0.557 -0.588,0.879 v 0.031 c 0,0.324 0.264,0.852 0.588,0.852 h 6.437 c 0.322,0 0.586,-0.527 0.586,-0.852 v -0.031 c 0,-0.322 -0.264,-0.879 -0.586,-0.879 h -1.789 c -0.303,0 -0.55,-0.244 -0.55,-0.549 0,-0.303 0.247,-0.549 0.55,-0.549 h 1.789 c 0.929,0 1.687,1.047 1.687,1.977 v 0.031 c -0.001,0.93 -0.759,1.949 -1.687,1.949 z"
   id="path147"
   inkscape:connector-curvature="0"
   style="fill:#333333" />
		</g>
		<g
   id="g153">
			<path
   d="m 391.133,283.398 c -1.303,0 -2.366,-1.063 -2.366,-2.367 0,-1.304 1.063,-2.367 2.366,-2.367 1.306,0 2.367,1.063 2.367,2.367 0,1.304 -1.062,2.367 -2.367,2.367 z m 0,-3.634 c -0.698,0 -1.268,0.568 -1.268,1.268 0,0.7 0.569,1.268 1.268,1.268 0.701,0 1.27,-0.568 1.27,-1.268 0,-0.7 -0.569,-1.268 -1.27,-1.268 z"
   id="path151"
   inkscape:connector-curvature="0"
   style="fill:#333333" />
		</g>
	</g>
</g>
</svg>