<?xml version="1.0" encoding="UTF-8" standalone="no"?>
<svg
   xmlns:dc="http://purl.org/dc/elements/1.1/"
   xmlns:cc="http://creativecommons.org/ns#"
   xmlns:rdf="http://www.w3.org/1999/02/22-rdf-syntax-ns#"
   xmlns:svg="http://www.w3.org/2000/svg"
   xmlns="http://www.w3.org/2000/svg"
   xmlns:sodipodi="http://sodipodi.sourceforge.net/DTD/sodipodi-0.dtd"
   xmlns:inkscape="http://www.inkscape.org/namespaces/inkscape"
   viewBox="0 0 960.07 680.02"
   version="1.1"
   id="svg128"
   sodipodi:docname="Lageplan.svg"
   inkscape:version="0.92.3 (2405546, 2018-03-11)">
  <metadata
     id="metadata134">
    <rdf:RDF>
      <cc:Work
         rdf:about="">
        <dc:format>image/svg+xml</dc:format>
        <dc:type
           rdf:resource="http://purl.org/dc/dcmitype/StillImage" />
        <dc:title>20190121MakerSpace_Lageplan_Piktgramme_Plakataufhängung</dc:title>
      </cc:Work>
    </rdf:RDF>
  </metadata>
  <defs
     id="defs132" />
  <sodipodi:namedview
     pagecolor="#ffffff"
     bordercolor="#666666"
     borderopacity="1"
     objecttolerance="10"
     gridtolerance="10"
     guidetolerance="10"
     inkscape:pageopacity="0"
     inkscape:pageshadow="2"
     inkscape:window-width="1920"
     inkscape:window-height="1027"
     id="namedview130"
     showgrid="false"
     inkscape:zoom="0.98160169"
     inkscape:cx="490.99689"
     inkscape:cy="304.19918"
     inkscape:window-x="-8"
     inkscape:window-y="-8"
     inkscape:window-maximized="1"
     inkscape:current-layer="svg128"
     showguides="true"
     inkscape:guide-bbox="true">
    <sodipodi:guide
       position="-144.66153,748.7762"
       orientation="0,1"
       id="guide944"
       inkscape:locked="false" />
  </sodipodi:namedview>
  <title
     id="title2">20190121MakerSpace_Lageplan_Piktgramme_Plakataufhängung</title>
  <path
     style="fill:#ff6300;stroke:none;stroke-width:5;stroke-linecap:butt;stroke-linejoin:miter;stroke-opacity:1;fill-opacity:1;stroke-miterlimit:4;stroke-dasharray:none"
     d="M 644.1,76.68 H 771.32 L 771.14558,157.3987 644.1,157.42 Z"
     id="path4733"
     inkscape:connector-curvature="0" />
  <path
     style="fill:#ff8d00;stroke:none;stroke-width:5;stroke-linecap:butt;stroke-linejoin:miter;stroke-opacity:1;fill-opacity:1;stroke-miterlimit:4;stroke-dasharray:none"
     d="M 743.2,157.42 771.14558,157.3987 771.3,264.66 H 645.5 v 26.1 h -59.48698 l 0.087,-137.22 h 57.90201 l 0.098,3.88 z"
     id="path4731"
     inkscape:connector-curvature="0" />
  <path
     style="fill:#ffff00;fill-opacity:1;stroke:none;stroke-width:5;stroke-linecap:butt;stroke-linejoin:miter;stroke-opacity:1;stroke-miterlimit:4;stroke-dasharray:none"
     d="M 645.5,290.76 H 586.01302 L 585.65284,398.53927 675.35,399.52 v 22.22 h 92 v -22.22 h 60.34386 L 861.91097,293.1866 H 786.99351 L 786.89,264.66 H 645.5 Z"
     id="path4729"
     inkscape:connector-curvature="0"
     sodipodi:nodetypes="ccccccccccccc" />
  <path
     style="fill:#00ff00;stroke:#000000;stroke-width:5;stroke-linecap:butt;stroke-linejoin:miter;stroke-opacity:1;fill-opacity:1;stroke-miterlimit:4;stroke-dasharray:none"
     d="m 144.46,526.21 h 131.31 v 21.62 l 46.16,0.33 v 120.27 l -139.66,0.07 z"
     id="path4727"
     inkscape:connector-curvature="0"
     sodipodi:nodetypes="ccccccc" />
  <path
     style="fill:#007aff;fill-opacity:1;stroke:#000000;stroke-width:5;stroke-linecap:butt;stroke-linejoin:miter;stroke-opacity:1;stroke-miterlimit:4;stroke-dasharray:none"
     d="M 273.88,266.61 76.35818,266.53327 115.93,418.78 h 159.84 z"
     id="path4723"
     inkscape:connector-curvature="0"
     sodipodi:nodetypes="ccccc" />
  <path
     sodipodi:nodetypes="ccccc"
     inkscape:connector-curvature="0"
     id="path4725"
     d="M 116.60534,418.96009 275.77,418.78 V 526.21 H 144.46 Z"
     style="fill:#ff0000;fill-opacity:1;stroke:#000000;stroke-width:5;stroke-linecap:butt;stroke-linejoin:miter;stroke-opacity:1;stroke-miterlimit:4;stroke-dasharray:none" />
  <polyline
     id="polyline4"
     style="opacity:1;fill:none;stroke:#000000;stroke-width:5;stroke-linecap:round;stroke-linejoin:round;stroke-miterlimit:4;stroke-dasharray:none;stroke-opacity:1"
     points="422.41 671.52 741.54 671.52 951.57 8.5 448.93 8.5" />
  <path
     inkscape:connector-curvature="0"
     id="path6"
     style="opacity:1;fill:none;stroke:#000000;stroke-width:5;stroke-linecap:round;stroke-linejoin:round;stroke-miterlimit:4;stroke-dasharray:none;stroke-opacity:1"
     d="M 512.19,154.75 V 225.9 H 449.3 m -2.13,139.45 v 50 H 586.1 V 153.54 H 449.61 l 0.13,35.42 m 66,79.72 h 67.85 M 448.37,256.77 v 76.85 m 2.09,-10.34 H 583.7" />
  <path
     inkscape:connector-curvature="0"
     id="path8"
     style="opacity:1;fill:none;stroke:#000000;stroke-width:5;stroke-linecap:round;stroke-linejoin:round;stroke-miterlimit:4;stroke-dasharray:none;stroke-opacity:1"
     d="m 641.25,585.08 v -19.84 h 82.27 m -31.17,0 v 69.82 h 31.17" />
  <path
     inkscape:connector-curvature="0"
     id="path10"
     style="opacity:1;fill:none;stroke:#000000;stroke-width:5;stroke-linecap:round;stroke-linejoin:round;stroke-miterlimit:4;stroke-dasharray:none;stroke-opacity:1"
     d="m 645.5,290.76 v -26.1 h 141.39 v 26.1 m -15.59,-156 v 129.9" />
  <path
     inkscape:connector-curvature="0"
     id="path12"
     style="opacity:1;fill:none;stroke:#000000;stroke-width:5;stroke-linecap:round;stroke-linejoin:round;stroke-miterlimit:4;stroke-dasharray:none;stroke-opacity:1"
     d="M 743.2,157.42 H 644.1 V 68.08 m 127.22,8.6 H 644.1 m 127.22,-8.6 v 36.9" />
  <path
     sodipodi:nodetypes="cccccccccccccccccc"
     inkscape:connector-curvature="0"
     id="path14"
     style="opacity:1;fill:none;stroke:#000000;stroke-width:5;stroke-linecap:round;stroke-linejoin:round;stroke-miterlimit:4;stroke-dasharray:none;stroke-opacity:1"
     d="M 116.60534,418.96009 275.77,418.78 m 1.56,-19.48 v 48.17 m -132.87,78.74 h 131.31 m 0,-18.76 v 40.38 m 46.16,0.33 v 120.27 m 38.17,2.07 c -4,0 -141.24,-2 -177.83,-2 C 8.5,8.5 181.53,666.27 8.5,8.5 H 132.59 M 47.515027,155.36797 211.27,155.75 V 102.88 H 33.680485" />
  <polyline
     id="polyline16"
     style="opacity:1;fill:none;stroke:#000000;stroke-width:5;stroke-linecap:round;stroke-linejoin:round;stroke-miterlimit:4;stroke-dasharray:none;stroke-opacity:1"
     points="337.05 93.75 336.52 8.5 273.87 8.5 273.87 31.55" />
  <line
     id="line18"
     style="opacity:1;fill:none;stroke:#000000;stroke-width:5;stroke-linecap:round;stroke-linejoin:round;stroke-miterlimit:4;stroke-dasharray:none;stroke-opacity:1"
     y2="8.5"
     x2="214.73"
     y1="8.5"
     x1="167.14" />
  <polygon
     id="polygon20"
     style="opacity:1;fill:none;stroke:#000000;stroke-width:5;stroke-linecap:round;stroke-linejoin:round;stroke-miterlimit:4;stroke-dasharray:none;stroke-opacity:1"
     points="441.2,628.58 451.97,609.94 467.73,609.94 478.5,628.59 497.15,617.82 515.79,628.59 526.56,609.95 542.33,609.94 553.06,591.25 534.39,580.52 534.36,564.75 515.69,554.02 505,572.67 487.82,575.15 478.5,591.29 459.85,580.52 441.2,591.29 430.44,572.64 414.68,572.64 393.14,609.93 403.9,628.58 422.55,617.82 " />
  <rect
     id="rect22"
     style="opacity:1;fill:none;stroke:#000000;stroke-width:5;stroke-linecap:round;stroke-linejoin:round;stroke-miterlimit:4;stroke-dasharray:none;stroke-opacity:1"
     height="124.67"
     width="34"
     y="336.32999"
     x="351.95999" />
  <rect
     id="rect24"
     style="opacity:1;fill:none;stroke:#000000;stroke-width:5;stroke-linecap:round;stroke-linejoin:round;stroke-miterlimit:4;stroke-dasharray:none;stroke-opacity:1"
     height="22.67"
     width="161.5"
     y="487.45999"
     x="445.75" />
  <path
     inkscape:connector-curvature="0"
     id="path26"
     style="opacity:1;fill:none;stroke:#000000;stroke-width:5;stroke-linecap:round;stroke-linejoin:round;stroke-miterlimit:4;stroke-dasharray:none;stroke-opacity:1"
     d="m 696.6,421.74 v 88.39 h -21.25 m 0,-110.61 v 22.22 h 92 v -22.22 m 0.1,52 H 696.6 v 31.16 h 70.83 z" />
  <rect
     id="rect28"
     style="opacity:1;fill:none;stroke:#000000;stroke-width:5;stroke-linecap:round;stroke-linejoin:round;stroke-miterlimit:4;stroke-dasharray:none;stroke-opacity:1"
     height="27.969999"
     width="62.330002"
     y="58.57"
     x="811.32001" />
  <rect
     id="rect30"
     style="opacity:1;fill:none;stroke:#000000;stroke-width:5;stroke-linecap:round;stroke-linejoin:round;stroke-miterlimit:4;stroke-dasharray:none;stroke-opacity:1"
     height="22.67"
     width="161.5"
     y="82.809998"
     x="445.75" />
  <path
     inkscape:connector-curvature="0"
     id="path32"
     style="opacity:1;fill:none;stroke:#000000;stroke-width:5;stroke-linecap:round;stroke-linejoin:round;stroke-miterlimit:4;stroke-dasharray:none;stroke-opacity:1"
     d="m 125.59,266.61 h 148.29 v 33.24 m 0,-237.69 v 77.64 h 38.94 v 14.09 H 337.1 V 124.68 M 273.87,265.62 V 186.45 H 159.74 l -0.05,78.21 m 120.33,1.95 h 57.5 L 337.1,153.89" />
  <g
     id="Piktogramme"
     style="opacity:1;stroke:#000000;stroke-width:5;stroke-miterlimit:4;stroke-dasharray:none;stroke-opacity:1">
    <path
       inkscape:connector-curvature="0"
       d="m 345.88,398.38 v -12.67 c 0,-16.89 -25.34,-16.89 -25.34,0 v 21.12 c 0,16.89 25.34,16.89 25.34,0 v 0"
       transform="translate(-135.9,-38.02)"
       style="fill:none;stroke:#000000;stroke-width:5;stroke-linecap:round;stroke-linejoin:round;stroke-miterlimit:4;stroke-dasharray:none;stroke-opacity:1"
       id="path35" />
    <line
       x1="197.31"
       y1="343.45999"
       x2="197.31"
       y2="351.91"
       style="fill:none;stroke:#000000;stroke-width:5;stroke-linecap:round;stroke-miterlimit:4;stroke-dasharray:none;stroke-opacity:1"
       id="line37" />
    <path
       inkscape:connector-curvature="0"
       d="m 333.21,373 c 0,0 0,-12.67 -12.67,-12.67 -12.67,0 -12.67,-8.45 -12.67,-12.67"
       transform="translate(-135.9,-38.02)"
       style="fill:none;stroke:#000000;stroke-width:5;stroke-linecap:round;stroke-linejoin:round;stroke-miterlimit:4;stroke-dasharray:none;stroke-opacity:1"
       id="path39" />
    <path
       inkscape:connector-curvature="0"
       d="M 747.54,647.23 V 612 c 0,-6.44 0,-6.44 -6.44,-6.44 h -25.76 c -6.44,0 -6.44,0 -6.44,6.44 v 51.52 c 0,6.44 0,6.44 6.44,6.44 h 25.76 c 6.44,0 6.44,0 6.44,-6.44 v -6.44"
       transform="translate(-135.9,-38.02)"
       style="fill:none;stroke:#000000;stroke-width:5;stroke-linecap:round;stroke-linejoin:round;stroke-miterlimit:4;stroke-dasharray:none;stroke-opacity:1"
       id="path41" />
    <line
       x1="585.87"
       y1="599.77002"
       x2="572.98999"
       y2="599.77002"
       style="fill:none;stroke:#000000;stroke-width:5;stroke-linecap:round;stroke-linejoin:round;stroke-miterlimit:4;stroke-dasharray:none;stroke-opacity:1"
       id="line43" />
    <line
       x1="572.98999"
       y1="580.45001"
       x2="564.01001"
       y2="580.45001"
       style="fill:none;stroke:#000000;stroke-width:5;stroke-linecap:round;stroke-linejoin:round;stroke-miterlimit:4;stroke-dasharray:none;stroke-opacity:1"
       id="line45" />
    <line
       x1="572.98999"
       y1="593.33002"
       x2="564.01001"
       y2="593.33002"
       style="fill:none;stroke:#000000;stroke-width:5;stroke-linecap:round;stroke-linejoin:round;stroke-miterlimit:4;stroke-dasharray:none;stroke-opacity:1"
       id="line47" />
    <line
       x1="572.98999"
       y1="606.21002"
       x2="564.01001"
       y2="606.21002"
       style="fill:none;stroke:#000000;stroke-width:5;stroke-linecap:round;stroke-linejoin:round;stroke-miterlimit:4;stroke-dasharray:none;stroke-opacity:1"
       id="line49" />
    <line
       x1="572.98999"
       y1="619.09003"
       x2="564.01001"
       y2="619.09003"
       style="fill:none;stroke:#000000;stroke-width:5;stroke-linecap:round;stroke-linejoin:round;stroke-miterlimit:4;stroke-dasharray:none;stroke-opacity:1"
       id="line51" />
    <line
       x1="620.62"
       y1="580.45001"
       x2="611.63"
       y2="580.45001"
       style="fill:none;stroke:#000000;stroke-width:5;stroke-linecap:round;stroke-linejoin:round;stroke-miterlimit:4;stroke-dasharray:none;stroke-opacity:1"
       id="line53" />
    <line
       x1="620.62"
       y1="593.33002"
       x2="611.63"
       y2="593.33002"
       style="fill:none;stroke:#000000;stroke-width:5;stroke-linecap:round;stroke-linejoin:round;stroke-miterlimit:4;stroke-dasharray:none;stroke-opacity:1"
       id="line55" />
    <line
       x1="620.62"
       y1="606.21002"
       x2="611.63"
       y2="606.21002"
       style="fill:none;stroke:#000000;stroke-width:5;stroke-linecap:round;stroke-linejoin:round;stroke-miterlimit:4;stroke-dasharray:none;stroke-opacity:1"
       id="line57" />
    <line
       x1="620.62"
       y1="619.09003"
       x2="611.63"
       y2="619.09003"
       style="fill:none;stroke:#000000;stroke-width:5;stroke-linecap:round;stroke-linejoin:round;stroke-miterlimit:4;stroke-dasharray:none;stroke-opacity:1"
       id="line59" />
    <path
       inkscape:connector-curvature="0"
       d="M 721.78,637.79"
       transform="translate(-135.9,-38.02)"
       style="fill:none;stroke:#000000;stroke-width:5;stroke-linecap:round;stroke-linejoin:round;stroke-miterlimit:4;stroke-dasharray:none;stroke-opacity:1"
       id="path61" />
    <polyline
       points="611.63 599.77 605.19 599.77 598.75 599.77"
       style="fill:none;stroke:#000000;stroke-width:5;stroke-linecap:round;stroke-linejoin:round;stroke-miterlimit:4;stroke-dasharray:none;stroke-opacity:1"
       id="polyline63" />
    <path
       inkscape:connector-curvature="0"
       d="m 734.66,637.79 a 6.44,6.44 0 1 1 -6.44,-6.44 6.44,6.44 0 0 1 6.44,6.44"
       transform="translate(-135.9,-38.02)"
       style="fill:none;stroke:#000000;stroke-width:5;stroke-linecap:round;stroke-linejoin:round;stroke-miterlimit:4;stroke-dasharray:none;stroke-opacity:1"
       id="path65" />
    <path
       inkscape:connector-curvature="0"
       d="M 715.34,605.59 V 612 c 0,6.44 0,6.44 6.44,6.44 h 12.88 c 6.44,0 6.44,0 6.44,-6.44 v -6.44"
       transform="translate(-135.9,-38.02)"
       style="fill:none;stroke:#000000;stroke-width:5;stroke-linecap:round;stroke-linejoin:round;stroke-miterlimit:4;stroke-dasharray:none;stroke-opacity:1"
       id="path67" />
    <path
       inkscape:connector-curvature="0"
       d="m 715.34,670 v -6.44 c 0,-6.44 0,-6.44 6.44,-6.44 h 12.88 c 6.44,0 6.44,0 6.44,6.44 V 670"
       transform="translate(-135.9,-38.02)"
       style="fill:none;stroke:#000000;stroke-width:5;stroke-linecap:round;stroke-linejoin:round;stroke-miterlimit:4;stroke-dasharray:none;stroke-opacity:1"
       id="path69" />
    <path
       inkscape:connector-curvature="0"
       d="m 846.21,267 c 0,5.45 0,5.45 -5.45,5.45 H 797.2 c -5.45,0 -5.45,0 -5.45,-5.45 v -21.76 c 0,-0.61 -0.72,-5.45 2.47,-5.45 5.45,0 -0.06,-4 5.38,-4 h 2.32 c 5.45,0 0.07,4 5.51,4 5.44,0 0.26,-8.81 5.71,-8.81 H 824 c 5.44,0 0,8.81 5.44,8.81 h 11.29 c 5.45,0 5.45,0 5.45,5.45 v 10.89"
       transform="translate(-135.9,-38.02)"
       style="fill:none;stroke:#000000;stroke-width:5;stroke-linecap:round;stroke-linejoin:round;stroke-miterlimit:4;stroke-dasharray:none;stroke-opacity:1"
       id="path71" />
    <circle
       cx="683.07001"
       cy="216.95"
       r="11.55"
       style="fill:none;stroke:#000000;stroke-width:5;stroke-linecap:round;stroke-linejoin:round;stroke-miterlimit:4;stroke-dasharray:none;stroke-opacity:1"
       id="circle73" />
    <path
       inkscape:connector-curvature="0"
       d="m 812.24,255 a 6.74,6.74 0 0 1 6.74,-6.74"
       transform="translate(-135.9,-38.02)"
       style="fill:none;stroke:#000000;stroke-width:5;stroke-linecap:round;stroke-linejoin:round;stroke-miterlimit:4;stroke-dasharray:none;stroke-opacity:1"
       id="path75" />
    <path
       inkscape:connector-curvature="0"
       d="m 865.82,402.15 c 0,5.44 0.62,5.44 -5.45,5.44 h -49 c -5.45,0 -5.45,0 -5.45,-5.44 0,-5.44 0,-5.45 5.45,-5.45 h 27.23 c 5.44,0 5.44,0 5.44,-5.44 v -5.45 c 0,-5.45 0,-5.45 -5.44,-5.45 h -5.45 c -5.44,0 0,5.45 -5.44,5.45 h -10.9 c -5.45,0 -5.45,0 -5.45,-5.45 v -10.89 c 0,-5.44 0,-5.44 5.45,-5.44 h 43.56 c 5.45,0 5.45,0 5.45,5.44 v 21.79"
       transform="translate(-135.9,-38.02)"
       style="fill:none;stroke:#000000;stroke-width:5;stroke-linecap:round;stroke-linejoin:round;stroke-miterlimit:4;stroke-dasharray:none;stroke-opacity:1"
       id="path77" />
    <path
       inkscape:connector-curvature="0"
       d="m 865.82,369.47 c 5.44,0 5.44,0 5.44,5.45 0,5.45 0,5.44 -5.44,5.44"
       transform="translate(-135.9,-38.02)"
       style="fill:none;stroke:#000000;stroke-width:5;stroke-linecap:round;stroke-linejoin:round;stroke-miterlimit:4;stroke-dasharray:none;stroke-opacity:1"
       id="path79" />
    <line
       x1="680.90002"
       y1="347.79001"
       x2="680.90002"
       y2="353.23001"
       style="fill:none;stroke:#000000;stroke-width:5;stroke-linecap:round;stroke-linejoin:round;stroke-miterlimit:4;stroke-dasharray:none;stroke-opacity:1"
       id="line81" />
    <circle
       cx="718.21997"
       cy="338.51999"
       r="4.6500001"
       style="fill:none;stroke:#000000;stroke-width:5;stroke-linecap:round;stroke-linejoin:round;stroke-miterlimit:4;stroke-dasharray:none;stroke-opacity:1"
       id="circle83" />
    <path
       inkscape:connector-curvature="0"
       d="M 329.74,546.16"
       transform="translate(-135.9,-38.02)"
       style="fill:none;stroke:#000000;stroke-width:5;stroke-linecap:round;stroke-linejoin:round;stroke-miterlimit:4;stroke-dasharray:none;stroke-opacity:1"
       id="path85" />
    <circle
       cx="186.39"
       cy="464.03"
       r="2.3800001"
       style="fill:none;stroke:#000000;stroke-width:5;stroke-linecap:round;stroke-linejoin:round;stroke-miterlimit:4;stroke-dasharray:none;stroke-opacity:1"
       id="circle87" />
    <circle
       cx="222.71001"
       cy="464.03"
       r="2.3800001"
       style="fill:none;stroke:#000000;stroke-width:5;stroke-linecap:round;stroke-linejoin:round;stroke-miterlimit:4;stroke-dasharray:none;stroke-opacity:1"
       id="circle89" />
    <circle
       cx="194.08"
       cy="451.95999"
       r="2.3800001"
       style="fill:none;stroke:#000000;stroke-width:5;stroke-linecap:round;stroke-linejoin:round;stroke-miterlimit:4;stroke-dasharray:none;stroke-opacity:1"
       id="circle91" />
    <circle
       cx="208.91"
       cy="474.10999"
       r="2.3800001"
       style="fill:none;stroke:#000000;stroke-width:5;stroke-linecap:round;stroke-linejoin:round;stroke-miterlimit:4;stroke-dasharray:none;stroke-opacity:1"
       id="circle93" />
    <circle
       cx="194.92"
       cy="471.94"
       r="2.3800001"
       style="fill:none;stroke:#000000;stroke-width:5;stroke-linecap:round;stroke-linejoin:round;stroke-miterlimit:4;stroke-dasharray:none;stroke-opacity:1"
       id="circle95" />
    <circle
       cx="215.10001"
       cy="483.57999"
       r="2.3800001"
       style="fill:none;stroke:#000000;stroke-width:5;stroke-linecap:round;stroke-linejoin:round;stroke-miterlimit:4;stroke-dasharray:none;stroke-opacity:1"
       id="circle97" />
    <circle
       cx="202.44"
       cy="457.51999"
       r="2.3800001"
       style="fill:none;stroke:#000000;stroke-width:5;stroke-linecap:round;stroke-linejoin:round;stroke-miterlimit:4;stroke-dasharray:none;stroke-opacity:1"
       id="circle99" />
    <circle
       cx="209.96001"
       cy="464.03"
       r="2.3800001"
       style="fill:none;stroke:#000000;stroke-width:5;stroke-linecap:round;stroke-linejoin:round;stroke-miterlimit:4;stroke-dasharray:none;stroke-opacity:1"
       id="circle101" />
    <polyline
       points="201.16 436.33 201.16 448.35 203.08 450.06 203.08 455.23"
       style="fill:none;stroke:#000000;stroke-width:5;stroke-linecap:round;stroke-linejoin:round;stroke-miterlimit:4;stroke-dasharray:none;stroke-opacity:1"
       id="polyline103" />
    <polyline
       points="206.06 436.33 206.06 445.78 209.96 449.58 209.96 461.65"
       style="fill:none;stroke:#000000;stroke-width:5;stroke-linecap:round;stroke-linejoin:round;stroke-miterlimit:4;stroke-dasharray:none;stroke-opacity:1"
       id="polyline105" />
    <polyline
       points="186.39 461.65 186.39 450.17 192.54 443.8 192.54 436.62"
       style="fill:none;stroke:#000000;stroke-width:5;stroke-linecap:round;stroke-linejoin:round;stroke-miterlimit:4;stroke-dasharray:none;stroke-opacity:1"
       id="polyline107" />
    <polyline
       points="222.62 461.65 222.62 455.23 211.19 443.8 211.19 436.33"
       style="fill:none;stroke:#000000;stroke-width:5;stroke-linecap:round;stroke-linejoin:round;stroke-miterlimit:4;stroke-dasharray:none;stroke-opacity:1"
       id="polyline109" />
    <polyline
       points="203.82 496.5 203.86 479.54 207.12 476.27"
       style="fill:none;stroke:#000000;stroke-width:5;stroke-linecap:round;stroke-linejoin:round;stroke-miterlimit:4;stroke-dasharray:none;stroke-opacity:1"
       id="polyline111" />
    <polyline
       points="194.92 474.32 194.92 478.13 199 482.21 199 496.5"
       style="fill:none;stroke:#000000;stroke-width:5;stroke-linecap:round;stroke-linejoin:round;stroke-miterlimit:4;stroke-dasharray:none;stroke-opacity:1"
       id="polyline113" />
    <polyline
       points="208.48 496.57 208.48 490.31 213.48 485.31"
       style="fill:none;stroke:#000000;stroke-width:5;stroke-linecap:round;stroke-linejoin:round;stroke-miterlimit:4;stroke-dasharray:none;stroke-opacity:1"
       id="polyline115" />
    <path
       inkscape:connector-curvature="0"
       d="m 398.51,647.28 4.69,4.09 c 4.69,4.09 4.69,4.09 1.12,8.19 l -10.73,12.32 c -3.58,4.11 -3.58,4.11 -8.27,0 l -4.69,-4.09 c -4.69,-4.08 -4.69,-4.08 -1.12,-8.19 l 10.73,-12.32 c 3.58,-4.08 3.58,-4.08 8.27,0 z"
       transform="translate(-135.9,-38.02)"
       style="fill:none;stroke:#000000;stroke-width:5;stroke-linecap:round;stroke-linejoin:round;stroke-miterlimit:4;stroke-dasharray:none;stroke-opacity:1"
       id="path117" />
    <path
       inkscape:connector-curvature="0"
       d="m 375.85,631 -18,-15.72 c -4.69,-4.09 -4.69,-4.09 -8.27,0 -2.24,2.58 -4,4.28 -5.05,6.06 -1.05,1.78 -0.9,2.61 -0.39,3.44 0.51,0.83 2.81,2.46 3.33,3.13 0.73,0.94 0.31,3.11 0.89,3.82 0.58,0.71 2.44,0 3.2,0.88 0.76,0.88 0,2.78 0.74,3.59 0.74,0.81 2.7,0.31 3.45,1.15 0.75,0.84 -0.09,2.63 0.56,3.36 0.65,0.73 2.78,0.4 3.51,1.22 0.73,0.82 0.08,2.84 0.8,3.65 0.72,0.81 2.77,0.36 3.46,1.14 0.69,0.78 -0.08,2.64 0.58,3.38 0.66,0.74 2.87,0.49 3.56,1.26 0.69,0.77 0.1,2.84 0.78,3.6 0.68,0.76 2.82,0.41 3.47,1.13 0.65,0.72 0,2.68 0.55,3.28 1,1.15 3.13,0.72 3.36,0.92"
       transform="translate(-135.9,-38.02)"
       style="fill:none;stroke:#000000;stroke-width:5;stroke-linecap:round;stroke-linejoin:round;stroke-miterlimit:4;stroke-dasharray:none;stroke-opacity:1"
       id="path119" />
    <path
       inkscape:connector-curvature="0"
       d="M 375.85,631"
       transform="translate(-135.9,-38.02)"
       style="fill:none;stroke:#000000;stroke-width:5;stroke-linecap:round;stroke-linejoin:round;stroke-miterlimit:4;stroke-dasharray:none;stroke-opacity:1"
       id="path121" />
    <path
       inkscape:connector-curvature="0"
       d="m 390.65,643.89 -5.22,-4.54"
       transform="translate(-135.9,-38.02)"
       style="fill:none;stroke:#000000;stroke-width:5;stroke-linecap:round;stroke-linejoin:round;stroke-miterlimit:4;stroke-dasharray:none;stroke-opacity:1"
       id="path123" />
    <rect
       x="388.79999"
       y="651.41998"
       width="6.2199998"
       height="16.34"
       transform="rotate(41.06,374.74086,459.18019)"
       style="fill:none;stroke:#000000;stroke-width:5;stroke-linecap:round;stroke-linejoin:round;stroke-miterlimit:4;stroke-dasharray:none;stroke-opacity:1"
       id="rect125" />
  </g>
  <flowRoot
     xml:space="preserve"
     id="flowRoot946"
     style="font-style:normal;font-weight:normal;font-size:40px;line-height:1.25;font-family:sans-serif;letter-spacing:0px;word-spacing:0px;fill:#000000;fill-opacity:1;stroke:none"
     transform="rotate(30,202.03207,452.74139)"><flowRegion
       id="flowRegion948"><rect
         id="rect950"
         width="559.28998"
         height="398.32858"
         x="184.39252"
         y="136.01117" /></flowRegion><flowPara
       id="flowPara952"
       style="font-size:85.33333588px;fill:#ff0000">ENTWURF</flowPara></flowRoot></svg>
