<svg xmlns="http://www.w3.org/2000/svg" xmlns:xlink="http://www.w3.org/1999/xlink" viewBox="0 0 889.32 601.69"><defs><style>.cls-1{fill:none;}.cls-2{clip-path:url(#clip-path);}.cls-3{fill:#333;}.cls-4{fill:#e5005c;}.cls-5{fill:#ffed00;}.cls-6{fill:#f07d00;}.cls-7{fill:#0f03b2;}.cls-8{fill:#006654;}.cls-9{fill:#fff;}</style><clipPath id="clip-path" transform="translate(-593.11 0)"><rect class="cls-1" width="2055.12" height="643.4"/></clipPath></defs><title>Element 4</title><g id="Ebene_2" data-name="Ebene 2"><g id="Ebene_1-2" data-name="Ebene 1"><g class="cls-2"><path class="cls-3" d="M1480.9,3.08A8,8,0,0,0,1474.55,0H1009a7.7,7.7,0,0,0-7.87,7.53,7.7,7.7,0,0,0,7.87,7.52h454.84l-189.56,571.6H984.38a7.53,7.53,0,1,0,0,15H1280a7.84,7.84,0,0,0,7.52-5.25L1482.06,9.8a7.29,7.29,0,0,0-1.16-6.72" transform="translate(-593.11 0)"/><path class="cls-3" d="M1007.32,318.83a4.54,4.54,0,0,0-4.63,4.43v44.25a4.53,4.53,0,0,0,4.63,4.42H1136a4.53,4.53,0,0,0,4.63-4.42V135.85a4.54,4.54,0,0,0-4.63-4.43H1009.58a4.72,4.72,0,0,0-3.28,1.31,4.33,4.33,0,0,0-1.35,3.14l.12,31.35a4.54,4.54,0,0,0,4.63,4.4h0a4.52,4.52,0,0,0,4.61-4.44l-.1-26.91h48.69v55.18h-53.63a4.43,4.43,0,1,0,0,8.85h58.26a4.54,4.54,0,0,0,4.63-4.43v-59.6h59.18v93h-60.53a4.42,4.42,0,1,0,0,8.84h60.53v39.46H1013.07V227.19a4.64,4.64,0,0,0-9.27,0v68a4.64,4.64,0,0,0,9.27,0v-4.72h118.29v72.62H1012V323.26a4.55,4.55,0,0,0-4.63-4.43" transform="translate(-593.11 0)"/><path class="cls-3" d="M1182.46,500.13v17.55a4.63,4.63,0,0,0,9.26,0V504.56h38.07v57.35a4.53,4.53,0,0,0,4.64,4.42h28.87a4.42,4.42,0,1,0,0-8.84h-24.24V504.56h24.24a4.43,4.43,0,1,0,0-8.85h-76.2a4.52,4.52,0,0,0-4.64,4.42" transform="translate(-593.11 0)"/><path class="cls-3" d="M1189.72,55.82a4.53,4.53,0,0,0-4.63,4.42v79a4.53,4.53,0,0,0,4.63,4.43h91.82a4.43,4.43,0,1,0,0-8.85h-87.19V72.26h108.58V92.91a4.63,4.63,0,0,0,9.26,0V60.24a4.63,4.63,0,0,0-9.26,0v3.18H1194.35V60.24a4.53,4.53,0,0,0-4.63-4.42" transform="translate(-593.11 0)"/><path class="cls-3" d="M846.79,32.35a4.54,4.54,0,0,0,4.63-4.44V12h48.8l.46,71a4.53,4.53,0,0,0,4.63,4.39h0a4.54,4.54,0,0,0,4.6-4.45l-.5-75.43a4.54,4.54,0,0,0-4.63-4.4h-58a4.54,4.54,0,0,0-4.64,4.43V27.91a4.55,4.55,0,0,0,4.64,4.44" transform="translate(-593.11 0)"/><path class="cls-3" d="M747.93,15H792a7.7,7.7,0,0,0,7.88-7.51A7.71,7.71,0,0,0,792,0H747.93a7.71,7.71,0,0,0-7.88,7.53A7.7,7.7,0,0,0,747.93,15" transform="translate(-593.11 0)"/><path class="cls-3" d="M968.26,552.54l-7.78-12.86,18.35-30.36h11.39l9.17,15.19a2.86,2.86,0,0,0,3.8,1l15.88-8.75,15.88,8.76a2.84,2.84,0,0,0,2.1.27,2.79,2.79,0,0,0,1.69-1.24l8-13.17,14.58-2a2.75,2.75,0,0,0,2-1.3l8.52-14.19,13.49,7.41,0,12.41a2.62,2.62,0,0,0,1.4,2.29l14.88,8.18-7.76,12.9h-13a2.77,2.77,0,0,0-2.4,1.33l-8.59,14.2L1055,544.35a2.93,2.93,0,0,0-1.39-.35,3,3,0,0,0-1.39.35l-14.86,8.2-8.59-14.2a2.82,2.82,0,0,0-2.4-1.33h-14.61a2.81,2.81,0,0,0-2.41,1.33l-8.58,14.2-14.86-8.2a2.86,2.86,0,0,0-2.78,0Zm32.14,5.93a2.85,2.85,0,0,0,3.8-1l9.17-15.16h11.4l9.16,15.17a2.82,2.82,0,0,0,1.69,1.24,2.94,2.94,0,0,0,2.1-.27l15.89-8.76,15.88,8.76a2.91,2.91,0,0,0,1.39.36,2.81,2.81,0,0,0,2.41-1.33l9.18-15.17h13a2.79,2.79,0,0,0,2.42-1.34l9.94-16.54a2.6,2.6,0,0,0-1-3.62l-15.89-8.72,0-12.43a2.69,2.69,0,0,0-1.41-2.3l-17.3-9.49a2.82,2.82,0,0,0-2.09-.26,2.69,2.69,0,0,0-1.69,1.24l-9.23,15.37-14.58,2a2.82,2.82,0,0,0-2,1.3l-7.24,12-14.86-8.2a2.92,2.92,0,0,0-2.78,0l-14.87,8.2-8.57-14.2a2.82,2.82,0,0,0-2.41-1.33H977.23a2.8,2.8,0,0,0-2.4,1.32l-20,33a2.51,2.51,0,0,0,0,2.64l10,16.5a2.79,2.79,0,0,0,1.69,1.24,2.89,2.89,0,0,0,2.1-.27l15.88-8.76Z" transform="translate(-593.11 0)"/><path class="cls-3" d="M947.85,405.24H921.91v-105h25.94Zm2.78-110.3h-31.5a2.72,2.72,0,0,0-2.78,2.65v110.3a2.72,2.72,0,0,0,2.78,2.66h31.5a2.72,2.72,0,0,0,2.77-2.66V297.59a2.71,2.71,0,0,0-2.77-2.65" transform="translate(-593.11 0)"/><path class="cls-3" d="M1152.82,448.71h-144V434h144Zm2.78-20.06H1006a2.72,2.72,0,0,0-2.78,2.66v20.06A2.72,2.72,0,0,0,1006,454H1155.6a2.72,2.72,0,0,0,2.78-2.65V431.31a2.72,2.72,0,0,0-2.78-2.66" transform="translate(-593.11 0)"/><path class="cls-3" d="M1322,229.74h-9.81V119.23a4.63,4.63,0,0,0-9.26,0V229.74H1191a4.53,4.53,0,0,0-4.63,4.43v23.09a4.63,4.63,0,0,0,9.26,0V238.6h121.71v18.66a4.63,4.63,0,0,0,9.25,0V234.17a4.52,4.52,0,0,0-4.62-4.43" transform="translate(-593.11 0)"/><path class="cls-3" d="M1299.35,422.63H1243V403.9h56.35Zm4.63-27.57h-61V377.58h60.88a4.76,4.76,0,0,0,3.27-1.3,4.28,4.28,0,0,0,1.36-3.14V353.5a4.63,4.63,0,0,0-9.26,0v15.23h-75.93V353.5a4.64,4.64,0,0,0-9.27,0v19.65a4.54,4.54,0,0,0,4.64,4.43h15v69.36h-15a4.43,4.43,0,1,0,0,8.85h19.68a4.53,4.53,0,0,0,4.63-4.42V431.48h61a4.54,4.54,0,0,0,4.63-4.42V399.48a4.53,4.53,0,0,0-4.63-4.42" transform="translate(-593.11 0)"/><path class="cls-3" d="M1347.42,54.48h52.17V73.92h-52.17Zm55,24.75a2.72,2.72,0,0,0,2.78-2.65V51.83a2.72,2.72,0,0,0-2.78-2.66h-57.75a2.72,2.72,0,0,0-2.77,2.66V76.58a2.71,2.71,0,0,0,2.77,2.65Z" transform="translate(-593.11 0)"/><path class="cls-3" d="M1152.82,90.68h-144V75.93h144Zm5.56-17.4a2.72,2.72,0,0,0-2.78-2.66H1006a2.72,2.72,0,0,0-2.78,2.66v20A2.72,2.72,0,0,0,1006,96H1155.6a2.72,2.72,0,0,0,2.78-2.66Z" transform="translate(-593.11 0)"/><path class="cls-3" d="M745.7,169.39h96.46v62.08h-96.5Zm105.72-4.21a1.48,1.48,0,0,0,0-.21V128.12h26.81v8a4.54,4.54,0,0,0,4.63,4.44h17.85l.39,90.88H852.49a6.26,6.26,0,0,0-1.07.11Zm36.07-37.06h13.19v3.61H887.49ZM736.44,165l0,66.5h-27a4.43,4.43,0,1,0,0,8.85H842.17v25a4.63,4.63,0,0,0,9.26,0V240.2a4.66,4.66,0,0,0,1.06.12h53.27A4.78,4.78,0,0,0,909,239a4.41,4.41,0,0,0,1.35-3.15l0-99.33V110.71a5.26,5.26,0,0,0-5-4.82,4.54,4.54,0,0,0-4.63,4.43v9H851.42V55a4.63,4.63,0,0,0-9.26,0V160.54H741.07a4.54,4.54,0,0,0-4.63,4.43" transform="translate(-593.11 0)"/><path class="cls-4" d="M697.38,297.09c.36,1.32,2.35,8.78,15.53,58.67H833.78V248.14H684.46c11.2,42.45,12.79,48.47,12.93,48.95Z" transform="translate(-593.11 0)"/><path class="cls-5" d="M848.33,500.1c-11.7,0-15.88-10.51-15.88-14.29v-4.34H748c7.75,27,15.92,59.12,26.37,95.54,21.9.1,95.38.24,101.75.24V481.47H864.19v4.34c0,3.78-2.73,14.29-15.86,14.29" transform="translate(-593.11 0)"/><path class="cls-3" d="M634.19,98.54H780.93v31.75h-138q-4.12-15-8.74-31.75M926.66,585.75c-.86,0-9.8-.12-22.19-.28l-5.3-.07V485a7.88,7.88,0,0,0-15.74,0V585.19l-9-.12c-36.56-.46-83.28-1-106.37-1.13-11-40-20.5-74.37-28.66-104l-1.89-6.86H840.68v11.61a7.88,7.88,0,0,0,15.74,0V449a7.88,7.88,0,0,0-15.74,0v9.08H733.32c-.65-2.35-1.29-4.65-1.91-6.93l-18-65.38c-.73-2.64-1.43-5.22-2.13-7.72H842.13v17.87a7.88,7.88,0,0,0,15.74,0V353.3a7.88,7.88,0,0,0-15.74,0V363h-135q-.83-3-1.6-5.77c-14.21-51.52-16.35-59.22-16.75-60.58h0c-.15-.5-1.86-6.72-13.94-50.56-6.16-22.38-15-54.54-27.75-100.77H788.8a7.7,7.7,0,0,0,7.87-7.52V91a7.71,7.71,0,0,0-7.87-7.52H630.05C624.34,62.76,618.07,40,611.2,15H719a7.7,7.7,0,0,0,7.87-7.51A7.71,7.71,0,0,0,719,0H601a8,8,0,0,0-6.23,2.93,7.24,7.24,0,0,0-1.38,6.51c35.55,129.09,55.33,200.94,66.36,241,13.87,50.33,13.92,50.47,14,50.75,0,0,0-.09-.1-.29.19.64,2.73,9.79,15.57,56.34,1.07,3.9,2.21,8,3.44,12.48a7.38,7.38,0,0,0,0,.82,7.26,7.26,0,0,0,1.48,4.39l3,10.84,18,65.39q1.9,6.9,3.92,14.22v.21a7.25,7.25,0,0,0,1.13,3.89q3.36,12.22,7.07,25.63c7.84,28.46,16.81,61,27.07,98.25a7.83,7.83,0,0,0,7.62,5.61c19.85,0,72.33.63,112.45,1.15l29.87.38c14.48.19,21.47.28,22.41.28a7.52,7.52,0,1,0,0-15" transform="translate(-593.11 0)"/><path class="cls-6" d="M833.78,450.32V385.77H722.84l16.33,64.55Z" transform="translate(-593.11 0)"/></g><rect class="cls-7" x="609.44" y="79.76" width="92.33" height="47.1"/><rect class="cls-7" x="555.54" y="151.37" width="146.24" height="70.82"/><g class="cls-2"><path class="cls-8" d="M1191.1,269.35c-7.85,0-12.72-6.15-12.72-11.25v-12h-30.59v115H1206v-9.88c0-4.76,5.47-9.77,12.67-9.77,7.51,0,13.33,4.77,13.33,9.76v9.87l59.26,0V351.2c0-4.6,4.13-9.78,13.32-9.78a20.65,20.65,0,0,1,4.74.56l.1-95.89H1203.92v12c0,4.59-4.45,11.23-12.82,11.23" transform="translate(-593.11 0)"/><path class="cls-9" d="M1251.19,192a1.73,1.73,0,0,0,1.77-1.68V180.16c0-6-.79-6.75-7.07-6.75h-11c-.72,0-.88,0-.88-2.41,0-1.88,0-5.79-4.42-5.79H1219c-4.37,0-4.49,3.88-4.56,5.74-.06,2.46-.27,2.46-1,2.46a4,4,0,0,1-.74,0s-.17-.14-.17-.18c0-1.52-.52-3.53-4.46-3.53h-2.56a4.75,4.75,0,0,0-3.21,1,3.18,3.18,0,0,0-.87,2.54s-.09.08-.09.12a5.54,5.54,0,0,1-.75,0,4,4,0,0,0-2.89,1.15c-1.58,1.62-1.38,4.28-1.29,5.42,0,.08,0,.15,0,.17V200.4c0,6,.79,6.74,7.06,6.74h42.39c6.27,0,7.06-.75,7.06-6.74a1.76,1.76,0,0,0-3.52,0,15.21,15.21,0,0,1-.17,3.22,18.79,18.79,0,0,1-3.37.15h-42.38a18.79,18.79,0,0,1-3.37-.15,16.15,16.15,0,0,1-.16-3.22V180.15c0-.08,0-.22,0-.41-.16-2,.15-2.67.35-2.87,0,0,.07-.08.31-.08a5,5,0,0,0,3.52-1c.88-.86.64-1.86,1-2.41a1.23,1.23,0,0,1,.75-.29h2.25a1.36,1.36,0,0,1,1,.36c.34,1.48.48,3.39,4.41,3.39,4.35,0,4.48-3.87,4.54-5.74.07-2.46.28-2.46,1-2.46h10.59c.71,0,.87,0,.87,2.42,0,1.88,0,5.78,4.42,5.78h11a17.57,17.57,0,0,1,3.36.16,15.1,15.1,0,0,1,.17,3.21v10.13a1.71,1.71,0,0,0,1.75,1.67" transform="translate(-593.11 0)"/><path class="cls-9" d="M1224.45,198.35a9.13,9.13,0,1,1,9.55-9.12,9.36,9.36,0,0,1-9.55,9.12m0-21.65c-7.24,0-13.12,5.61-13.12,12.53s5.88,12.53,13.12,12.53,13.12-5.62,13.12-12.53-5.88-12.53-13.12-12.53" transform="translate(-593.11 0)"/><path class="cls-9" d="M1224.45,181.2a8.22,8.22,0,0,0-8.39,8,1.78,1.78,0,0,0,3.55,0,4.73,4.73,0,0,1,4.84-4.6,1.71,1.71,0,1,0,0-3.42" transform="translate(-593.11 0)"/><path class="cls-9" d="M1249.75,295.3a13,13,0,0,1-.14,2.71,6.33,6.33,0,0,1-1.36.12v-5.66a6.52,6.52,0,0,1,1.36.11,13.16,13.16,0,0,1,.14,2.72m-4.47,12.79a1.49,1.49,0,0,0,3,0V301c3.91-.15,4.46-1.13,4.46-5.65s-.55-5.51-4.49-5.66c-.16-3.77-1.18-4.29-5.93-4.29h-35.7c-5.29,0-6,.63-6,5.68v8.53c0,4.52.55,5.5,4.47,5.66v2.86a1.49,1.49,0,0,0,3,0v-2.84h7.43c3.72,0,3.72-2.58,3.72-3.55a4,4,0,0,1,0-.63,2.1,2.1,0,0,1,.72-.08h4.47a15.51,15.51,0,0,1,2.84.13,14.15,14.15,0,0,1,.13,2.71v4.26a14.28,14.28,0,0,1-.13,2.73,16.79,16.79,0,0,1-2.84.12h-22.33c-5.28,0-5.94.64-5.94,5.68s.66,5.68,5.94,5.68h40.18c2.86,0,4.17,0,5.11-.91s.88-2,.85-3.71c0-.32,0-.67,0-1.06a1.49,1.49,0,0,0-3,0c0,.4,0,.77,0,1.1a15.37,15.37,0,0,1,0,1.64,22.11,22.11,0,0,1-3,.1h-40.18a16.79,16.79,0,0,1-2.84-.12,26.49,26.49,0,0,1,0-5.44,16.79,16.79,0,0,1,2.84-.12h22.33c5.27,0,5.94-.64,5.94-5.69v-4.26c0-5-.67-5.68-5.94-5.68H1220c-3.72,0-3.72,2.58-3.72,3.55a4.23,4.23,0,0,1,0,.64,2.57,2.57,0,0,1-.72.07h-8.92a15.39,15.39,0,0,1-2.84-.13,12.25,12.25,0,0,1-.15-2.72V291a12.35,12.35,0,0,1,.15-2.72,15.39,15.39,0,0,1,2.84-.13h35.71a15.57,15.57,0,0,1,2.84.13,14.21,14.21,0,0,1,.13,2.72v17.06Z" transform="translate(-593.11 0)"/><path class="cls-9" d="M1237.19,298.79a2.22,2.22,0,1,1,2.32-2.22,2.29,2.29,0,0,1-2.32,2.22m0-7.28a5.07,5.07,0,1,0,5.29,5.05,5.19,5.19,0,0,0-5.29-5.05" transform="translate(-593.11 0)"/><path class="cls-9" d="M841.84,540.92l-9.13,10a13.42,13.42,0,0,1-2,2,16.7,16.7,0,0,1-2.83-2.12l-4-3.31a15.7,15.7,0,0,1-2.58-2.4,12.51,12.51,0,0,1,1.78-2.18l9.13-10a13,13,0,0,1,2-2,17.56,17.56,0,0,1,2.83,2.12l4,3.32a15.77,15.77,0,0,1,2.58,2.39,13,13,0,0,1-1.78,2.18m4.85-2.56c-.2-1.38-1.34-2.34-3.63-4.23l-4-3.32c-2.29-1.9-3.43-2.85-4.89-2.85a3.09,3.09,0,0,0-1.53.4,1.69,1.69,0,0,0-.28-.32L828,524.36a1.6,1.6,0,0,0-2.18.14,1.42,1.42,0,0,0,.15,2.08l4.43,3.69.09.06-.58.64-9.12,10c-.16.17-.3.34-.45.49a.46.46,0,0,0-.07-.07,2.23,2.23,0,0,0-1.51-.42,4.8,4.8,0,0,1-1-.11,1.77,1.77,0,0,0,0-.22,3.22,3.22,0,0,0-.68-2.55,3.6,3.6,0,0,0-2.31-.88l-.53-.07c0-.14,0-.29,0-.41a3.54,3.54,0,0,0-.73-2.47,4,4,0,0,0-2.38-1,4.54,4.54,0,0,1-.51-.09c0-.1,0-.21,0-.29a3.17,3.17,0,0,0-.65-2.43,3.66,3.66,0,0,0-2.41-.93l-.45-.06c0-.15,0-.32,0-.48a3.43,3.43,0,0,0-.73-2.41,3.81,3.81,0,0,0-2.43-1l-.41-.06a3.11,3.11,0,0,1,0-.32,3.08,3.08,0,0,0-.62-2.35,3.73,3.73,0,0,0-2.49-1l-.39-.06c0-.15,0-.36,0-.5a3.29,3.29,0,0,0-.67-2.31,3.58,3.58,0,0,0-2.63-.93h0c0-.1,0-.21,0-.3a4.4,4.4,0,0,0-.75-2.51,10.36,10.36,0,0,0-1.48-1.34c-.42-.34-1.12-.91-1.26-1.08s-.27-.42.28-1.18c.89-1.22,3.68-4.3,4.12-4.72l.54-.51a11.68,11.68,0,0,1,1.68-1.47,16.68,16.68,0,0,1,2.7,2l15.34,12.77a1.59,1.59,0,0,0,2.18-.14,1.43,1.43,0,0,0-.15-2.09l-15.34-12.76c-4.18-3.49-5.1-3.79-8.61-.42l-.52.5c-.51.49-3.45,3.74-4.47,5.13-1.16,1.6-1.28,3-.38,4.41a9.42,9.42,0,0,0,1.88,1.78,12.52,12.52,0,0,1,1,.87,5.34,5.34,0,0,1,.14,1,3.65,3.65,0,0,0,.66,2.19,3,3,0,0,0,2.31.83l.34,0c0,.12,0,.24,0,.34a2.91,2.91,0,0,0,3.11,3.41l.4,0a2.53,2.53,0,0,1,0,.28,3.21,3.21,0,0,0,.64,2.42,3.8,3.8,0,0,0,2.4,1l.51.08c0,.16,0,.34,0,.49a3.49,3.49,0,0,0,.73,2.43,3.74,3.74,0,0,0,2.43.94l.38,0a2.62,2.62,0,0,1,0,.29,3.17,3.17,0,0,0,.63,2.39,4,4,0,0,0,2.46,1l.51.09a4.26,4.26,0,0,1,0,.5,3.33,3.33,0,0,0,.71,2.35,4,4,0,0,0,2.53,1l.32,0c0,.13,0,.26,0,.36a2.77,2.77,0,0,0,.59,2.22,4.53,4.53,0,0,0,3.23,1.16,2.78,2.78,0,0,0-.23,1.56c.2,1.38,1.34,2.33,3.62,4.23l4,3.33c2.29,1.89,3.43,2.85,4.89,2.85s2.55-1.08,4.33-3l9.12-10c1.76-2,2.73-3,2.52-4.52" transform="translate(-593.11 0)"/><path class="cls-9" d="M829.76,546.84l-2-1.7,7.44-8.15,2.05,1.71Zm6.11-12.51a1.32,1.32,0,0,0-1.82.13l-9.13,10a1.2,1.2,0,0,0,.13,1.73l4,3.32a1.28,1.28,0,0,0,.84.31H830a1.27,1.27,0,0,0,.88-.42l9.13-10a1.21,1.21,0,0,0-.14-1.74Z" transform="translate(-593.11 0)"/><path class="cls-9" d="M1258.84,121h-8.32v-6.9c5.75-.54,11.18-4.63,11.18-12a1.15,1.15,0,0,0-2.3,0,9.38,9.38,0,0,1-3.16,7.39,10.66,10.66,0,0,1-7,2.47c-4.86,0-10.08-3.08-10.08-9.86a1.15,1.15,0,0,0-2.29,0c0,7.82,5.71,11.61,11.36,12V121h-8.31a1.1,1.1,0,1,0,0,2.19h18.93a1.1,1.1,0,1,0,0-2.19" transform="translate(-593.11 0)"/><path class="cls-9" d="M1249.37,108.48a6.74,6.74,0,0,0,6.88-6.89V97.94a1.15,1.15,0,0,0-2.29,0v3.65a4.5,4.5,0,0,1-4.59,4.7,4.37,4.37,0,0,1-4.63-4.48c0-1.33,0-3.21,0-5.07s0-3.65,0-4.92a4.85,4.85,0,0,1,4.8-5,4.2,4.2,0,0,1,3,1.11,5.07,5.07,0,0,1,1.42,3.76c0,.14,0,.28,0,.42a.19.19,0,0,1,0,.08v.21h0c.06.59.29,1.11,1.12,1.12h0a1.1,1.1,0,0,0,1.14-1.11h0v-.71a7.18,7.18,0,0,0-2.09-5.31,6.53,6.53,0,0,0-4.62-1.76,7.07,7.07,0,0,0-7.09,7.2c0,1.27,0,3.09,0,4.92s0,3.74,0,5.08a6.57,6.57,0,0,0,6.92,6.67" transform="translate(-593.11 0)"/><path class="cls-9" d="M772.66,303a1.38,1.38,0,0,0,1.28.85,1.36,1.36,0,0,0,.48-.09l6.91-2.49a1.28,1.28,0,0,0,.8-1.67,1.38,1.38,0,0,0-1.76-.76l-6.91,2.48a1.28,1.28,0,0,0-.8,1.68" transform="translate(-593.11 0)"/><path class="cls-9" d="M765.58,306.67a.36.36,0,0,0,.11-.1s.06-.06.09-.09l.07-.11a.3.3,0,0,0,.06-.11.39.39,0,0,0,.06-.11.65.65,0,0,0,0-.13l0-.11c0-.05,0-.1,0-.15v-.11c0-.06,0-.1,0-.14s0-.08,0-.12,0-.08,0-.12l0-.13-.06-.1a.83.83,0,0,0-.08-.12v0s0,0-.06-.06l-.1-.1-.1-.08-.11-.07a.34.34,0,0,0-.12-.06l-.12,0-.13,0a.53.53,0,0,0-.12,0l-.15,0H753.55a1.31,1.31,0,1,0,0,2.62h7.08l-6.81,4.92-9.26-8.84,17.27-10.59a1.28,1.28,0,0,0,.41-1.8,1.39,1.39,0,0,0-1.89-.39l-18.7,11.47a1.29,1.29,0,0,0-.62,1,1.27,1.27,0,0,0,.4,1.06l11.29,10.79a1.44,1.44,0,0,0,1.79.11l11-8s0,0,.06-.05" transform="translate(-593.11 0)"/><path class="cls-9" d="M757.62,298.79a1.4,1.4,0,0,0-1.73.83,1.29,1.29,0,0,0,.86,1.65l7.81,2.49a1.33,1.33,0,0,0,.43.07,1.36,1.36,0,0,0,1.3-.9,1.29,1.29,0,0,0-.86-1.65Z" transform="translate(-593.11 0)"/><path class="cls-9" d="M796.92,301.72l-19.5-12a1.4,1.4,0,0,0-1.89.39,1.28,1.28,0,0,0,.41,1.8L794,303l-25,23.41-9.77-9.32L773.49,307h11.16a1.31,1.31,0,1,0,0-2.62H773l-.15,0h-.12l-.13,0-.13,0-.1.05-.14.08h0l-15.86,11.3s-.05.05-.08.06l-.07.06,0,0a.52.52,0,0,0-.1.11.86.86,0,0,0-.07.1l-.06.11-.06.11a.65.65,0,0,0,0,.13l0,.12a.49.49,0,0,0,0,.12s0,.09,0,.13a.69.69,0,0,0,0,.13.27.27,0,0,0,0,.12.53.53,0,0,0,0,.12l0,.12.06.11.08.12v0l.06.06.08.09,11.83,11.29a1.35,1.35,0,0,0,1,.39,1.42,1.42,0,0,0,1-.38l27.16-25.47a1.25,1.25,0,0,0,.4-1.06,1.27,1.27,0,0,0-.61-1" transform="translate(-593.11 0)"/><path class="cls-9" d="M742.4,281.57h19.33v4.34a1.31,1.31,0,0,0,.23.72l5.7,8.15v6.67a1.33,1.33,0,0,0,1.37,1.3h0a1.33,1.33,0,0,0,1.36-1.31v-6.66l5.68-8.15a1.26,1.26,0,0,0,.23-.72v-4.34h19.33a1.31,1.31,0,1,0,0-2.61h-20.7a1.33,1.33,0,0,0-1.36,1.3v5.25L769,292l-3.36-4.81h4.13a1.31,1.31,0,1,0,0-2.62h-5.32v-4.34a1.33,1.33,0,0,0-1.37-1.3H742.4a1.31,1.31,0,1,0,0,2.61" transform="translate(-593.11 0)"/><path class="cls-9" d="M1152.4,527.52a6.95,6.95,0,0,0-13.41,0h-7.92v-19.1a12.65,12.65,0,0,1,.22-3.48,6.51,6.51,0,0,1,2.15-.21v3.69c0,6,.64,6.57,6.88,6.57h10.74c6.24,0,6.89-.61,6.89-6.57v-3.69a6.29,6.29,0,0,1,2.12.21,11.62,11.62,0,0,1,.24,3.48v19.1Zm-6.7,5.13a3.7,3.7,0,1,1,3.87-3.69,3.79,3.79,0,0,1-3.87,3.69m-9.25-27.93H1155v3.69a11.66,11.66,0,0,1-.24,3.49,13.18,13.18,0,0,1-3.64.23h-10.75a13.63,13.63,0,0,1-3.63-.22,11.29,11.29,0,0,1-.25-3.5v-3.69Zm.23,41.3a13.77,13.77,0,0,1,3.64-.22h10.75a14.5,14.5,0,0,1,3.65.21,11.58,11.58,0,0,1,.24,3.48v3.7h-18.51v-3.7a12,12,0,0,1,.23-3.47m26.65-20.77h6a1.43,1.43,0,1,0,0-2.86h-6V515h6a1.44,1.44,0,1,0,0-2.87h-6v-3.71c0-6-.65-6.56-6.88-6.56H1135c-6.24,0-6.88.61-6.88,6.56v3.71h-6a1.44,1.44,0,1,0,0,2.87h6v7.4h-6a1.43,1.43,0,1,0,0,2.86h6v7.4h-6a1.44,1.44,0,1,0,0,2.88h6v7.39h-6a1.44,1.44,0,1,0,0,2.88h6v3.7c0,6,.64,6.56,6.88,6.56h21.5c6.23,0,6.88-.61,6.88-6.56v-3.7h6a1.44,1.44,0,1,0,0-2.88h-7.5a1.47,1.47,0,0,0-1.5,1.44v5.13a12,12,0,0,1-.23,3.47,5.87,5.87,0,0,1-2.14.22v-3.69c0-6-.65-6.57-6.88-6.57h-10.75c-6.23,0-6.88.62-6.88,6.57v3.69a6.1,6.1,0,0,1-2.13-.21,11.55,11.55,0,0,1-.24-3.48v-19.1H1139a6.95,6.95,0,0,0,13.41,0h7.92v6.1a1.51,1.51,0,0,0,3,0v-1h6a1.44,1.44,0,1,0,0-2.88h-6v-7.4Z" transform="translate(-593.11 0)"/><path class="cls-9" d="M965.64,97.71H948.18c-2.52,0-4.58-2.64-4.58-5v-.08c0-2.41,2.06-5.12,4.58-5.12h3.36V69.71h-3.36c-2.52,0-4.58-2.68-4.58-5.09v-.23c0-2.41,2.06-4.93,4.58-4.93h9.53a4.49,4.49,0,0,1,4.58,4.37V82.74a1.5,1.5,0,0,1-3,0V63.83a1.55,1.55,0,0,0-1.59-1.52h-9.53c-.88,0-1.59,1.37-1.59,2.21v.23c0,.83.71,2.11,1.59,2.11H953a1.46,1.46,0,0,1,1.49,1.43V88.88A1.45,1.45,0,0,1,953,90.3h-4.85c-.88,0-1.59,1.45-1.59,2.28v.08c0,.84.71,2.21,1.59,2.21h17.46c.88,0,1.6-1.37,1.6-2.21v-.08c0-.83-.72-2.28-1.6-2.28h-4.85a1.42,1.42,0,1,1,0-2.84h4.85c2.53,0,4.58,2.71,4.58,5.12v.08c0,2.41-2.06,5-4.58,5" transform="translate(-593.11 0)"/><path class="cls-9" d="M956.91,46.38a3.29,3.29,0,1,0,3.45,3.28,3.36,3.36,0,0,0-3.45-3.28m0,9.41a6.14,6.14,0,1,1,6.42-6.13,6.29,6.29,0,0,1-6.42,6.13" transform="translate(-593.11 0)"/><path class="cls-6" d="M769.17,422.94a1.35,1.35,0,1,0,1.35,1.35,1.35,1.35,0,0,0-1.35-1.35" transform="translate(-593.11 0)"/><path class="cls-6" d="M803.84,414.41a1.35,1.35,0,1,0-1.36-1.35,1.34,1.34,0,0,0,1.36,1.35" transform="translate(-593.11 0)"/><path class="cls-6" d="M779,422.94a1.35,1.35,0,1,0,1.35,1.35,1.35,1.35,0,0,0-1.35-1.35" transform="translate(-593.11 0)"/><path class="cls-6" d="M803.22,433.53a1.36,1.36,0,0,0,1.35-1.37,1.35,1.35,0,0,0-2.7,0,1.36,1.36,0,0,0,1.35,1.37" transform="translate(-593.11 0)"/><path class="cls-9" d="M760.22,414.41a1.35,1.35,0,1,1,1.35-1.35,1.34,1.34,0,0,1-1.35,1.35m-1.08-19.05a1.49,1.49,0,0,0-.42,1V409a4.35,4.35,0,1,0,3,0V397l7-7.21a1.51,1.51,0,0,0,.42-1v-3h-3v2.38Z" transform="translate(-593.11 0)"/><path class="cls-9" d="M769.46,406.53a1.36,1.36,0,0,1-1.35-1.35,1.34,1.34,0,0,1,1.35-1.35,1.35,1.35,0,1,1,0,2.7m0-5.72a4.37,4.37,0,1,0,4.37,4.37,4.38,4.38,0,0,0-4.37-4.37" transform="translate(-593.11 0)"/><path class="cls-9" d="M803.22,430.82a1.34,1.34,0,0,1,1.35,1.34,1.35,1.35,0,1,1-2.7,0,1.34,1.34,0,0,1,1.35-1.34m-1.74,5.36a4.37,4.37,0,1,0-2.63-4,4.17,4.17,0,0,0,.46,1.94l-11.63,11.58a1.6,1.6,0,0,0-.44,1.07v3.57h3v-2.94Z" transform="translate(-593.11 0)"/><path class="cls-9" d="M779.5,403.88a1.36,1.36,0,1,1-1.35,1.35,1.36,1.36,0,0,1,1.35-1.35m-3.14-8.54,1.8,1.61v4.12a4.38,4.38,0,1,0,3,.13v-4.93a1.49,1.49,0,0,0-.5-1.12l-1.8-1.6v-7.78h-3v8.45a1.52,1.52,0,0,0,.5,1.12" transform="translate(-593.11 0)"/><path class="cls-9" d="M788.52,411.7a1.36,1.36,0,1,1-1.35,1.35,1.36,1.36,0,0,1,1.35-1.35m-5.72-19.49,4.22,4.12V409a4.37,4.37,0,1,0,3,0V395.7a1.52,1.52,0,0,0-.46-1.08l-4.22-4.12v-4.73h-3v5.36a1.5,1.5,0,0,0,.45,1.08" transform="translate(-593.11 0)"/><path class="cls-9" d="M803.84,411.71a1.35,1.35,0,1,1-1.36,1.35,1.35,1.35,0,0,1,1.36-1.35M789,389.82l13.28,13.28V409a4.37,4.37,0,1,0,3-.08v-6.44a1.52,1.52,0,0,0-.44-1.07l-13.28-13.28v-2.36h-3v3a1.52,1.52,0,0,0,.44,1.06" transform="translate(-593.11 0)"/><path class="cls-9" d="M769.17,425.64a1.35,1.35,0,1,1,1.35-1.35,1.35,1.35,0,0,1-1.35,1.35m9.28,14.22-8-8.42v-3a4.37,4.37,0,1,0-3-.16v3.74a1.49,1.49,0,0,0,.42,1l8,8.41v8.82h3V440.9a1.58,1.58,0,0,0-.41-1" transform="translate(-593.11 0)"/><path class="cls-9" d="M779,425.65a1.36,1.36,0,1,1,1.35-1.36,1.36,1.36,0,0,1-1.35,1.36m5.57,10.24-4.07-4.8v-2.71a4.37,4.37,0,1,0-3,0v3.26a1.52,1.52,0,0,0,.36,1l4.07,4.8v12.9h3V436.86a1.49,1.49,0,0,0-.36-1" transform="translate(-593.11 0)"/></g></g></g></svg>